<?xml version="1.0" encoding="utf-8"?>
<!-- Generator: Adobe Illustrator 16.0.3, SVG Export Plug-In . SVG Version: 6.00 Build 0)  -->
<!DOCTYPE svg PUBLIC "-//W3C//DTD SVG 1.1//EN" "http://www.w3.org/Graphics/SVG/1.1/DTD/svg11.dtd">
<svg version="1.1" id="Layer_1" xmlns="http://www.w3.org/2000/svg" xmlns:xlink="http://www.w3.org/1999/xlink" x="0px" y="0px"
	 width="300px" height="300px" viewBox="0 0 300 300" enable-background="new 0 0 300 300" xml:space="preserve">
<g>
	<path fill="#E94950" stroke="#B51E2D" stroke-width="4.8395" stroke-miterlimit="10" d="M262.5,126.574
		c0,48.008-30.134,89.049-72.523,105.181l-39.945,54.205l-39.938-54.205C67.634,215.623,37.5,174.651,37.5,126.574
		C37.5,64.37,87.893,14.04,150.031,14.04S262.5,64.37,262.5,126.574z"/>
	<g>
		<path fill="#231F20" d="M203.606,141.405c0,18.665-9.54,44.224-24.009,60.563c-8.481,9.579-18.658-0.145-29.598-0.145
			s-21.116,9.724-29.592,0.151c-14.475-16.34-24.015-41.898-24.015-60.57c0-13.498,4.991-25.836,13.233-35.263
			c9.824-11.235,24.273-0.309,40.374-0.309c16.101,0,30.543-10.927,40.367,0.309C198.616,115.569,203.606,127.907,203.606,141.405z"
			/>
		<path fill="#231F20" d="M143.705,99.273c0,0-20.114-0.599-33.177-13.359c-13.063-12.76-14.134-32.856-14.134-32.856
			s20.114,0.599,33.171,13.359C142.627,79.178,143.705,99.273,143.705,99.273z"/>
		<polygon fill="#231F20" points="148.897,100.13 152.767,61.25 162.685,62.681 155.388,101.069 		"/>
	</g>
</g>
</svg>
