<?xml version="1.0" encoding="utf-8"?>
<!-- Generator: Adobe Illustrator 16.0.3, SVG Export Plug-In . SVG Version: 6.00 Build 0)  -->
<!DOCTYPE svg PUBLIC "-//W3C//DTD SVG 1.1//EN" "http://www.w3.org/Graphics/SVG/1.1/DTD/svg11.dtd">
<svg version="1.1" id="Layer_1" xmlns="http://www.w3.org/2000/svg" xmlns:xlink="http://www.w3.org/1999/xlink" x="0px" y="0px"
	 width="300px" height="300px" viewBox="0 0 300 300" enable-background="new 0 0 300 300" xml:space="preserve">
<g>
	<path fill="#603913" d="M163.601,145.916c2.729,11.645,5.313,23.269,7.718,34.953c1.2,5.835,2.348,11.677,3.395,17.546
		c1.023,5.888,2.011,11.737,2.575,17.827c0.499,6.21,0.298,12.113,0.104,18.048c-0.228,5.916-0.59,11.825-1.009,17.707
		c-0.85,11.784,0.275,8.076-0.967,19.863c-0.528,5.057-15.21,8.912-24.147,8.604c-8.944-0.294-15.749-4.637-15.223-9.696
		c0.029-0.235,0.073-0.468,0.12-0.689l0.013-0.046c2.814-11.517,3.296-7.709,5.735-19.266c1.215-5.782,2.369-11.563,3.394-17.332
		c0.986-5.75,1.954-11.543,2.271-17.044c0.261-5.628,0.091-11.464-0.123-17.267c-0.231-5.815-0.569-11.649-0.957-17.479
		c-0.786-11.679-1.753-23.376-2.871-35.04v-0.01c-0.19-2.034,2.566-3.77,6.16-3.881
		C153.204,142.613,163.149,144.028,163.601,145.916z"/>
	<path fill="#85B036" d="M296.468,96.874c0,0-42.5-40.121-82.458-31.546c-22.855,4.912-39.925,24.692-50.353,40.725
		c4.426-7.444,10.169-16.85,17.465-28.354c21.903-34.507,52.764-54.161,52.764-54.161s-62.272-0.271-84.161,34.235
		c-15.644,24.649-8.161,49.886-2.609,62.295c-0.195-0.039-0.394-0.079-0.6-0.118c-8.605-12.711-32.01-42.707-63.778-47.112
		c-40.479-5.605-79.206,32.452-79.206,32.452s34.558-7.993,75.04-2.383c23.38,3.239,43.608,10.313,56.539,15.714
		c-14.25-0.625-34.908,2.335-50.773,20.54c-26.854,30.8-12.878,86.932-12.878,86.932s11.245-34.144,38.09-64.959
		c16.644-19.092,28.869-29.851,35.764-35.276c1.072,1.666,3.56,2.834,6.458,2.834c2.595,0,4.855-0.939,6.071-2.33
		c12.476,6.49,32.198,18.46,49.813,36.62c28.46,29.33,40.604,63.694,40.604,63.694s13.987-59.692-14.476-89.034
		c-17.006-17.54-45.325-20.251-65.355-19.598c12.458-6.583,31.026-14.843,52.714-19.503
		C261.107,89.964,296.468,96.874,296.468,96.874z"/>
</g>
</svg>
