<?xml version="1.0" encoding="utf-8"?>
<!-- Generator: Adobe Illustrator 16.0.3, SVG Export Plug-In . SVG Version: 6.00 Build 0)  -->
<!DOCTYPE svg PUBLIC "-//W3C//DTD SVG 1.1//EN" "http://www.w3.org/Graphics/SVG/1.1/DTD/svg11.dtd">
<svg version="1.1" id="Layer_1" xmlns="http://www.w3.org/2000/svg" xmlns:xlink="http://www.w3.org/1999/xlink" x="0px" y="0px"
	 width="300px" height="300px" viewBox="0 0 300 300" enable-background="new 0 0 300 300" xml:space="preserve">
<g>
	<g>
		<path fill="#D65F20" stroke="#BE400E" stroke-width="4.8395" stroke-miterlimit="10" d="M262.5,126.578
			c0,47.941-30.134,89.045-72.523,105.177l-39.945,54.199l-39.938-54.199C67.634,215.623,37.5,174.582,37.5,126.578
			c0-62.208,50.393-112.532,112.531-112.532S262.5,64.37,262.5,126.578z"/>
	</g>
	<g>
		<path fill="#231F20" d="M128.046,100.521c0,0,8.299,9.263,8.299,10.404c0,1.134-14.853,3.818-14.853,3.818
			s-1.26,15.842-3.182,15.867c-1.928-0.025-11.45-8.003-11.45-8.003s0,0-1.563,1.267c3.271,6.97,11.885,17.449,25.559,31.11
			c27.355,27.361,81.087,38.666,87.382,32.364c6.302-6.302-21.5-9.244-38.263-31.558c-11.122-14.809-15.331-22.698-27.669-37.979
			c-7.732-9.584-16.435-17.575-22.383-20.599C128.506,99.645,128.046,100.521,128.046,100.521z"/>
		<g>
			<path fill="#231F20" d="M109.765,107.207c-2.332-4.486-4.518-8.954-6.617-13.529c-1.04-2.288-2.048-4.582-3.006-6.938
				c-0.945-2.357-1.859-4.739-2.583-7.297c-0.189-0.63-0.353-1.298-0.498-1.979c-0.076-0.353-0.132-0.674-0.202-1.097l-0.12-1.008
				c-0.133-1.368-0.164-2.685-0.158-3.983c0.032-2.583,0.227-5.11,0.473-7.618c0.51-5.016,1.241-9.938,2.161-14.878
				c0.158-0.888,1.002-1.468,1.891-1.311c0.844,0.164,1.424,0.945,1.323,1.783v0.038c-0.548,4.858-0.945,9.78-1.096,14.651
				c-0.076,2.432-0.095,4.864,0.044,7.221c0.069,1.178,0.183,2.344,0.365,3.44l0.151,0.813l0.195,0.725
				c0.158,0.517,0.334,1.046,0.529,1.588c1.632,4.323,3.945,8.696,6.276,12.981c2.344,4.278,4.839,8.532,7.392,12.672l0.013,0.019
				c1.09,1.771,0.542,4.083-1.229,5.173c-1.758,1.097-4.083,0.548-5.173-1.229C109.854,107.377,109.803,107.289,109.765,107.207z"/>
			<path fill="#231F20" d="M113.124,94.604c0,0,13.769-8.948,15.098-7.612c1.323,1.323-6.056,12.704-6.056,12.704
				s9.717,6.251,9.717,7.385c0,1.122-14.752,2.483-14.752,2.483s-0.611,16.277-2.521,16.283c-1.916,0-8.305-9.635-8.305-9.635
				s-7.474,7.14-9.137,5.476c-1.657-1.651,4.405-16.271,4.405-16.271l3.169-8.746L113.124,94.604z"/>
		</g>
	</g>
</g>
</svg>
