<?xml version="1.0" encoding="utf-8"?>
<!-- Generator: Adobe Illustrator 16.0.3, SVG Export Plug-In . SVG Version: 6.00 Build 0)  -->
<!DOCTYPE svg PUBLIC "-//W3C//DTD SVG 1.1//EN" "http://www.w3.org/Graphics/SVG/1.1/DTD/svg11.dtd">
<svg version="1.1" id="Layer_1" xmlns="http://www.w3.org/2000/svg" xmlns:xlink="http://www.w3.org/1999/xlink" x="0px" y="0px"
	 width="300px" height="300px" viewBox="0 0 300 300" enable-background="new 0 0 300 300" xml:space="preserve">
<g>
	<path fill="#E41C24" d="M238.667,169.494c0,30.868-15.775,73.134-39.708,100.165c-14.028,15.848-30.868-0.234-48.957-0.234
		c-18.099,0-34.927,16.082-48.956,0.243c-23.933-27.031-39.713-69.306-39.713-100.174c0-22.339,8.256-42.752,21.889-58.338
		c16.257-18.589,40.146-0.518,66.78-0.518c26.626,0,50.523-18.072,66.776,0.518C230.41,126.742,238.667,147.155,238.667,169.494z"/>
	<path fill="#85B036" d="M139.585,99.788c0,0-33.271-0.986-54.877-22.087c-21.61-21.11-23.375-54.345-23.375-54.345
		s33.266,0.991,54.877,22.097C137.811,66.553,139.585,99.788,139.585,99.788z"/>
	<polygon fill="#825E3C" points="148.175,101.206 154.577,36.897 170.99,39.27 158.907,102.759 	"/>
</g>
</svg>
