<?xml version="1.0" encoding="utf-8"?>
<!-- Generator: Adobe Illustrator 16.0.3, SVG Export Plug-In . SVG Version: 6.00 Build 0)  -->
<!DOCTYPE svg PUBLIC "-//W3C//DTD SVG 1.1//EN" "http://www.w3.org/Graphics/SVG/1.1/DTD/svg11.dtd">
<svg version="1.1" id="Layer_1" xmlns="http://www.w3.org/2000/svg" xmlns:xlink="http://www.w3.org/1999/xlink" x="0px" y="0px"
	 width="300px" height="300px" viewBox="0 0 300 300" enable-background="new 0 0 300 300" xml:space="preserve">
<g>
	<g>
		<path fill="#78A54D" stroke="#708160" stroke-width="4.8395" stroke-miterlimit="10" d="M262.5,126.51
			c0,48.015-30.134,89.049-72.523,105.181l-40.008,54.269l-39.875-54.269C67.634,215.559,37.5,174.587,37.5,126.51
			c0-62.139,50.393-112.468,112.468-112.468C212.17,14.042,262.5,64.371,262.5,126.51z"/>
	</g>
	<g>
		<path fill="#231F20" d="M158.463,171.991c-34.752,1.55-63.828-17.591-64.937-42.734c-1.122-25.136,26.157-46.763,60.91-48.307
			c34.752-1.525,63.833,17.6,64.942,42.737C220.481,148.83,193.216,170.453,158.463,171.991z"/>
		<path fill="#78A54D" d="M202.813,143.461c-7.209,0.315-13.447-8.563-13.945-19.818c-0.498-11.254,4.94-20.644,12.144-20.958
			c7.202-0.315,13.44,8.551,13.944,19.812C215.447,133.744,210.009,143.133,202.813,143.461z"/>
		<path fill="#78A54D" d="M186.775,96.565c-6.95-0.857-13.567-1.689-20.165-2.161c-3.289-0.233-6.56-0.359-9.812-0.359
			c-3.258,0-6.471,0.164-9.685,0.643c-6.415,0.895-12.779,2.716-18.993,5.129c-6.207,2.439-12.281,5.4-18.198,8.911
			c1.134-1.305,2.369-2.527,3.655-3.674c1.279-1.179,2.609-2.281,3.995-3.333c2.748-2.136,5.665-4.058,8.721-5.772
			c6.1-3.428,12.786-5.999,19.824-7.329c3.522-0.636,7.121-0.996,10.688-0.996c3.561,0.019,7.108,0.403,10.573,1.059
			c3.467,0.662,6.851,1.645,10.121,2.924C180.751,92.936,183.921,94.461,186.775,96.565z"/>
	</g>
</g>
</svg>
