<?xml version="1.0" encoding="utf-8"?>
<!-- Generator: Adobe Illustrator 16.0.3, SVG Export Plug-In . SVG Version: 6.00 Build 0)  -->
<!DOCTYPE svg PUBLIC "-//W3C//DTD SVG 1.1//EN" "http://www.w3.org/Graphics/SVG/1.1/DTD/svg11.dtd">
<svg version="1.1" id="Layer_1" xmlns="http://www.w3.org/2000/svg" xmlns:xlink="http://www.w3.org/1999/xlink" x="0px" y="0px"
	 width="300px" height="300px" viewBox="0 0 300 300" enable-background="new 0 0 300 300" xml:space="preserve">
<g>
	<path fill="#807393" d="M262.945,105.138c-0.443-0.967-0.895-1.884-1.35-2.683c-1.014-1.756-2.242-3.353-3.58-4.725
		c1.594-2.794,1.9-6.266,0.975-9.61c3.344,3.8,8.385,6.378,13.406,6.345c0.764,0,1.611-0.079,2.488-0.207
		c-0.441-0.95-0.918-1.867-1.367-2.658c-2.758-4.837-7.057-8.349-11.279-9.698c3.572-1.244,6.143-4.669,6.455-9.475
		c0.059-0.86,0.039-1.899-0.029-3.024c-1.113-0.168-2.164-0.231-3.061-0.231c-4.633,0.016-8.158,2.227-9.676,5.596
		c-1.031-4.263-4.143-8.78-8.658-11.886c-0.799-0.566-1.744-1.126-2.779-1.708c-0.215,0.99-0.342,1.933-0.41,2.801
		c-0.336,4.879,1.719,9.93,5.057,13.523c-3.178-1.143-6.553-1.109-9.408,0.183c-1.26-1.454-2.725-2.785-4.389-3.928
		c-0.807-0.567-1.732-1.134-2.787-1.708c-0.207,0.99-0.334,1.933-0.391,2.785c-0.334,4.878,1.721,9.946,5.035,13.555
		c-3.168-1.174-6.543-1.118-9.396,0.159c-1.248-1.444-2.727-2.777-4.391-3.919c-0.805-0.567-1.74-1.142-2.773-1.708
		c-0.215,0.989-0.354,1.931-0.416,2.793c-0.336,4.869,1.732,9.938,5.061,13.529c-3.18-1.149-6.564-1.109-9.43,0.192
		c-1.23-1.469-2.713-2.802-4.369-3.927c-0.809-0.576-1.74-1.143-2.775-1.724c-0.227,1.005-0.355,1.938-0.414,2.801
		c-0.33,4.876,1.711,9.953,5.068,13.521c-3.189-1.149-6.572-1.101-9.406,0.168c-1.27-1.437-2.738-2.771-4.383-3.927
		c-0.834-0.535-1.76-1.109-2.781-1.7c-0.229,0.997-0.355,1.939-0.416,2.794c-0.342,4.884,1.713,9.954,5.051,13.537
		c-3.178-1.143-6.555-1.118-9.408,0.176c-1.262-1.437-2.73-2.786-4.383-3.928c-0.818-0.558-1.76-1.124-2.773-1.716
		c-0.227,1.006-0.355,1.939-0.414,2.811c-0.336,4.867,1.711,9.944,5.049,13.528c-3.189-1.141-6.555-1.109-9.408,0.176
		c-1.268-1.437-2.725-2.786-4.381-3.936c-0.814-0.55-1.76-1.109-2.787-1.7c-0.215,1.006-0.352,1.94-0.41,2.803
		c-0.336,4.876,1.721,9.945,5.057,13.537c-3.189-1.157-6.561-1.118-9.408,0.176c-1.248-1.461-2.725-2.786-4.381-3.936
		c-0.814-0.55-1.752-1.126-2.781-1.708c-0.229,0.998-0.355,1.939-0.416,2.793c-0.334,4.878,1.723,9.946,5.049,13.538
		c-4.262-1.557-8.916-0.974-12.145,1.955c-0.463,0.424-0.953,0.95-1.449,1.542c0.811,0.646,1.537,1.204,2.248,1.691
		c2.793,1.939,5.68,2.953,8.332,3.257c1.973,0.223,3.84,0.104,5.396-0.526c-0.697,1.348-0.967,3.024-0.986,4.797
		c-0.047,2.833,0.711,6.026,2.523,9.219c0.371,0.655,0.805,1.373,1.324,2.107c0.604-0.415,1.125-0.814,1.588-1.237
		c3.285-2.978,4.271-7.679,3.021-12.173c3.346,3.799,8.406,6.354,13.434,6.313c0.748,0.008,1.586-0.047,2.459-0.175
		c-0.43-0.974-0.906-1.884-1.355-2.675c-1.008-1.764-2.225-3.368-3.566-4.74c1.566-2.771,1.893-6.259,0.955-9.604
		c3.348,3.8,8.404,6.362,13.416,6.338c0.76,0.008,1.613-0.071,2.479-0.199c-0.441-0.949-0.893-1.876-1.348-2.666
		c-1.014-1.772-2.242-3.36-3.57-4.741c1.563-2.778,1.877-6.242,0.963-9.603c3.326,3.815,8.395,6.361,13.395,6.347
		c0.777,0,1.625-0.072,2.479-0.192c-0.43-0.974-0.883-1.899-1.336-2.682c-1.014-1.771-2.242-3.36-3.574-4.741
		c1.586-2.785,1.889-6.251,0.967-9.604c3.344,3.801,8.404,6.362,13.402,6.355c0.77-0.017,1.604-0.073,2.469-0.2
		c-0.422-0.975-0.883-1.892-1.336-2.689c-1.006-1.756-2.234-3.353-3.582-4.719c1.582-2.785,1.889-6.265,0.963-9.609
		c3.346,3.8,8.395,6.369,13.414,6.338c0.758,0.007,1.619-0.081,2.484-0.191c-0.443-0.958-0.906-1.884-1.361-2.675
		c-0.994-1.779-2.223-3.376-3.561-4.742c1.572-2.785,1.889-6.248,0.953-9.593c3.346,3.8,8.406,6.354,13.414,6.329
		c0.758,0.008,1.625-0.072,2.479-0.191c-0.438-0.966-0.893-1.884-1.344-2.674c-1.006-1.78-2.248-3.361-3.576-4.733
		c1.576-2.794,1.891-6.257,0.965-9.609c3.338,3.799,8.396,6.36,13.395,6.353C261.244,105.328,262.08,105.265,262.945,105.138z"/>
	<path fill="#FFFFFF" d="M119.561,149.333c0.017-0.008,0.037-0.017,0.057-0.017C119.597,149.316,119.577,149.325,119.561,149.333z"
		/>
	<path fill="#FFFFFF" d="M118.803,149.82c0.041-0.041,0.076-0.071,0.128-0.104C118.878,149.749,118.843,149.779,118.803,149.82z"/>
	<path fill="#FFFFFF" d="M121.114,148.822c0.052-0.007,0.099-0.007,0.148-0.016C121.213,148.815,121.166,148.815,121.114,148.822z"
		/>
	<path fill="#FFFFFF" d="M120.267,149.037c0.049-0.008,0.088-0.022,0.14-0.047C120.355,149.015,120.316,149.029,120.267,149.037z"/>
	<path fill="#FFFFFF" d="M117.158,151.776c0.028-0.049,0.048-0.097,0.08-0.145C117.206,151.68,117.187,151.728,117.158,151.776z"/>
	<path fill="#FFFFFF" d="M117.629,150.985c0.02-0.023,0.053-0.064,0.08-0.097C117.682,150.921,117.649,150.962,117.629,150.985z"/>
	<path fill="#FFFFFF" d="M118.161,150.371c0.019-0.032,0.052-0.048,0.071-0.08C118.213,150.323,118.18,150.339,118.161,150.371z"/>
	<path fill="#FFFFFF" d="M122.02,148.743c-0.008,0-0.028,0-0.049,0c0.021,0,0.049,0,0.068,0
		C122.04,148.743,122.028,148.743,122.02,148.743z"/>
	<path fill="#FFFFFF" d="M122.766,148.807c0.06,0,0.12,0.009,0.18,0.016C122.886,148.815,122.826,148.807,122.766,148.807z"/>
	<path fill="#807393" d="M182.391,39.119c-0.865-0.615-1.723-1.182-2.51-1.646c-1.752-1.029-3.611-1.795-5.463-2.306
		c-0.02-3.225-1.477-6.386-3.947-8.82c4.793,1.628,10.443,1.341,14.783-1.188c0.662-0.384,1.359-0.862,2.045-1.414
		c-0.854-0.614-1.719-1.173-2.508-1.628c-4.803-2.825-10.285-3.72-14.604-2.786c2.471-2.849,2.98-7.103,0.867-11.422
		c-0.385-0.781-0.916-1.668-1.547-2.61c-1.045,0.415-1.979,0.879-2.758,1.317c-4.014,2.331-5.961,6.019-5.6,9.683
		c-3.033-3.178-7.969-5.547-13.433-5.979c-0.974-0.089-2.076-0.104-3.256-0.089c0.303,0.967,0.658,1.837,1.033,2.636
		c2.144,4.39,6.453,7.75,11.138,9.194c-3.336,0.591-6.237,2.299-8.069,4.837c-1.813-0.614-3.751-1.046-5.759-1.197
		c-0.981-0.087-2.076-0.128-3.265-0.087c0.316,0.957,0.667,1.826,1.042,2.609c2.146,4.39,6.458,7.75,11.131,9.227
		c-3.325,0.566-6.23,2.283-8.063,4.821c-1.808-0.623-3.748-1.037-5.755-1.197c-0.986-0.089-2.079-0.119-3.269-0.11
		c0.316,0.972,0.67,1.859,1.042,2.633c2.148,4.391,6.458,7.75,11.136,9.211c-3.33,0.575-6.243,2.314-8.075,4.861
		c-1.799-0.646-3.747-1.062-5.755-1.222c-0.985-0.088-2.08-0.12-3.26-0.112c0.307,0.991,0.663,1.859,1.046,2.644
		c2.134,4.39,6.445,7.766,11.13,9.187c-3.328,0.606-6.237,2.33-8.069,4.846c-1.812-0.622-3.751-1.055-5.747-1.223
		c-0.995-0.055-2.087-0.087-3.269-0.087c0.303,0.975,0.659,1.859,1.042,2.626c2.135,4.414,6.45,7.767,11.131,9.212
		c-3.336,0.605-6.238,2.306-8.069,4.845c-1.809-0.607-3.749-1.046-5.756-1.222c-0.986-0.063-2.088-0.087-3.26-0.087
		c0.307,0.973,0.663,1.859,1.033,2.641c2.147,4.374,6.458,7.759,11.131,9.195c-3.325,0.606-6.23,2.315-8.059,4.854
		c-1.819-0.614-3.758-1.054-5.758-1.229c-0.985-0.063-2.087-0.08-3.269-0.088c0.309,0.982,0.663,1.859,1.045,2.643
		c2.136,4.39,6.446,7.759,11.131,9.194c-3.336,0.607-6.242,2.314-8.069,4.854c-1.813-0.639-3.752-1.055-5.747-1.223
		c-0.999-0.071-2.088-0.104-3.27-0.087c0.304,0.974,0.659,1.852,1.034,2.634c2.143,4.383,6.454,7.75,11.13,9.212
		c-4.47,0.773-8.217,3.599-9.546,7.749c-0.188,0.591-0.356,1.293-0.495,2.052c1.026,0.152,1.939,0.287,2.798,0.351
		c3.383,0.279,6.385-0.271,8.847-1.349c1.82-0.774,3.384-1.812,4.409-3.128c0.069,1.516,0.668,3.088,1.534,4.646
		c1.38,2.481,3.632,4.859,6.792,6.729c0.65,0.374,1.376,0.782,2.202,1.157c0.308-0.655,0.563-1.262,0.751-1.852
		c1.364-4.224-0.12-8.797-3.457-12.069c4.793,1.628,10.452,1.316,14.795-1.221c0.659-0.359,1.356-0.83,2.043-1.389
		c-0.854-0.623-1.721-1.175-2.506-1.638c-1.752-1.037-3.612-1.811-5.456-2.322c-0.028-3.192-1.485-6.368-3.956-8.812
		c4.793,1.636,10.453,1.325,14.783-1.198c0.658-0.366,1.357-0.861,2.047-1.396c-0.857-0.614-1.713-1.196-2.498-1.644
		c-1.764-1.038-3.625-1.796-5.463-2.322c-0.028-3.193-1.485-6.354-3.956-8.813c4.792,1.646,10.452,1.317,14.782-1.181
		c0.666-0.384,1.365-0.879,2.049-1.404c-0.857-0.632-1.717-1.206-2.504-1.652c-1.752-1.037-3.611-1.805-5.451-2.339
		c-0.027-3.193-1.484-6.354-3.956-8.796c4.793,1.628,10.452,1.315,14.772-1.183c0.67-0.391,1.367-0.854,2.059-1.404
		c-0.859-0.63-1.713-1.206-2.502-1.669c-1.762-1.021-3.621-1.786-5.473-2.298c-0.02-3.208-1.477-6.369-3.955-8.812
		c4.793,1.636,10.461,1.332,14.791-1.198c0.658-0.366,1.361-0.869,2.049-1.396c-0.867-0.615-1.713-1.188-2.512-1.645
		c-1.752-1.045-3.611-1.812-5.451-2.323c-0.027-3.208-1.484-6.369-3.955-8.812c4.793,1.629,10.451,1.333,14.783-1.197
		c0.658-0.367,1.369-0.878,2.047-1.404c-0.859-0.614-1.713-1.182-2.504-1.636c-1.752-1.054-3.619-1.805-5.459-2.331
		c-0.02-3.201-1.477-6.362-3.959-8.804c4.793,1.628,10.453,1.324,14.783-1.19C181.002,40.141,181.701,39.67,182.391,39.119z"/>
	<path fill="#FFFFFF" d="M84.767,155.703c0.028,0.017,0.06,0.048,0.088,0.072C84.827,155.751,84.795,155.72,84.767,155.703z"/>
	<path fill="#FFFFFF" d="M85.407,156.277c0.02,0.017,0.04,0.033,0.059,0.056C85.446,156.311,85.427,156.294,85.407,156.277z"/>
	<path fill="#FFFFFF" d="M86.42,157.77c0.02,0.049,0.032,0.089,0.052,0.137C86.452,157.858,86.44,157.818,86.42,157.77z"/>
	<path fill="#FFFFFF" d="M85.95,156.956c0.027,0.04,0.059,0.088,0.087,0.129C86.008,157.044,85.977,156.996,85.95,156.956z"/>
	<path fill="#FFFFFF" d="M81.479,154.577c-0.028,0-0.057,0.017-0.087,0.017c0.059,0,0.119,0,0.178,0
		C81.54,154.594,81.511,154.577,81.479,154.577z"/>
	<path fill="#FFFFFF" d="M83.176,154.866c0.027,0.007,0.068,0.021,0.107,0.03C83.244,154.888,83.203,154.873,83.176,154.866z"/>
	<path fill="#FFFFFF" d="M80.781,154.634c0.072-0.017,0.127-0.017,0.2-0.017C80.908,154.617,80.854,154.617,80.781,154.634z"/>
	<path fill="#FFFFFF" d="M82.366,154.658c0.02,0,0.052,0.016,0.071,0.023C82.417,154.674,82.385,154.658,82.366,154.658z"/>
	<path fill="#FFFFFF" d="M83.981,155.201c0.049,0.031,0.096,0.063,0.147,0.079C84.077,155.264,84.03,155.232,83.981,155.201z"/>
	<path fill="#807393" d="M72.564,30.395c-1.053-0.064-2.088-0.104-2.993-0.089c-2.036,0.049-4.023,0.368-5.863,0.896
		c-1.704-2.738-4.605-4.653-7.993-5.428c4.941-1.134,9.606-4.343,11.969-8.765c0.362-0.678,0.71-1.461,1.006-2.291
		c-1.055-0.07-2.08-0.087-2.993-0.056c-5.572,0.104-10.708,2.22-13.897,5.284c0.61-3.735-1.182-7.623-5.249-10.186
		c-0.738-0.463-1.652-0.941-2.686-1.42c-0.678,0.901-1.229,1.787-1.652,2.578c-2.207,4.086-1.927,8.236,0.304,11.183
		c-4.243-1.125-9.694-0.544-14.575,1.947c-0.874,0.432-1.819,1.006-2.826,1.636c0.771,0.646,1.537,1.214,2.268,1.693
		c4.13,2.617,9.566,3.217,14.307,1.986c-2.53,2.26-4.103,5.236-4.33,8.358c-1.868,0.431-3.747,1.077-5.54,1.994
		c-0.878,0.432-1.832,0.982-2.825,1.637c0.765,0.654,1.536,1.213,2.262,1.677c4.123,2.609,9.558,3.209,14.312,2.02
		c-2.531,2.227-4.107,5.22-4.33,8.35c-1.88,0.398-3.752,1.068-5.544,1.987c-0.885,0.438-1.827,0.981-2.833,1.619
		c0.777,0.671,1.537,1.229,2.262,1.692c4.134,2.618,9.566,3.225,14.311,2.012c-2.53,2.235-4.103,5.236-4.322,8.372
		c-1.879,0.384-3.747,1.055-5.54,1.973c-0.886,0.438-1.831,0.981-2.833,1.621c0.778,0.67,1.532,1.228,2.263,1.69
		c4.123,2.619,9.566,3.242,14.311,1.988c-2.53,2.268-4.106,5.26-4.33,8.356c-1.872,0.425-3.751,1.078-5.543,1.98
		c-0.874,0.471-1.82,1.013-2.833,1.636c0.777,0.67,1.537,1.237,2.273,1.7c4.123,2.627,9.555,3.225,14.3,1.996
		c-2.522,2.266-4.105,5.236-4.33,8.357c-1.872,0.43-3.739,1.076-5.544,1.979c-0.874,0.455-1.819,1.021-2.821,1.637
		c0.775,0.671,1.534,1.237,2.263,1.7c4.122,2.609,9.566,3.226,14.308,1.995c-2.527,2.268-4.104,5.236-4.331,8.365
		c-1.868,0.424-3.748,1.077-5.54,1.973c-0.878,0.461-1.82,1.021-2.825,1.635c0.77,0.679,1.537,1.238,2.263,1.7
		c4.126,2.61,9.566,3.225,14.311,2.012c-2.53,2.251-4.103,5.228-4.33,8.349c-1.879,0.407-3.751,1.078-5.539,1.972
		c-0.887,0.463-1.832,1.007-2.827,1.646c0.767,0.67,1.534,1.228,2.263,1.691c4.122,2.618,9.558,3.217,14.3,2.012
		c-3.405,3.001-5.108,7.368-4.063,11.605c0.148,0.607,0.371,1.285,0.658,2.004c0.954-0.399,1.792-0.767,2.559-1.165
		c3.033-1.533,5.304-3.584,6.833-5.771c1.141-1.628,1.926-3.328,2.115-4.997c0.854,1.261,2.194,2.283,3.747,3.153
		c2.471,1.389,5.631,2.242,9.311,2.171c0.739-0.016,1.577-0.057,2.483-0.168c-0.08-0.719-0.188-1.364-0.336-1.971
		c-1.052-4.312-4.716-7.424-9.27-8.47c4.929-1.117,9.594-4.35,11.957-8.788c0.375-0.662,0.71-1.429,1.014-2.251
		c-1.062-0.088-2.088-0.111-2.993-0.088c-2.036,0.049-4.023,0.352-5.862,0.886c-1.704-2.696-4.61-4.645-7.995-5.428
		c4.941-1.133,9.6-4.35,11.97-8.778c0.363-0.655,0.707-1.438,1.002-2.26c-1.054-0.072-2.076-0.111-2.99-0.088
		c-2.038,0.048-4.014,0.375-5.866,0.886c-1.692-2.706-4.598-4.629-7.983-5.427c4.93-1.109,9.595-4.358,11.958-8.757
		c0.375-0.679,0.71-1.46,1.014-2.275c-1.063-0.08-2.088-0.118-3.001-0.096c-2.036,0.04-4.015,0.375-5.868,0.887
		c-1.699-2.73-4.593-4.646-7.981-5.429c4.934-1.125,9.599-4.358,11.969-8.756c0.363-0.678,0.709-1.444,1.005-2.274
		c-1.053-0.088-2.086-0.128-3.004-0.096c-2.027,0.04-4.015,0.359-5.855,0.894c-1.705-2.714-4.597-4.646-7.982-5.419
		c4.933-1.126,9.586-4.352,11.958-8.781c0.367-0.662,0.71-1.46,1.006-2.268c-1.054-0.07-2.076-0.104-2.993-0.087
		c-2.036,0.032-4.023,0.352-5.864,0.886c-1.704-2.714-4.597-4.645-7.982-5.42c4.93-1.134,9.595-4.365,11.958-8.78
		c0.375-0.661,0.707-1.461,1.014-2.267c-1.055-0.071-2.088-0.104-3.002-0.087c-2.038,0.031-4.014,0.375-5.867,0.886
		c-1.692-2.714-4.597-4.646-7.981-5.42c4.93-1.133,9.594-4.366,11.97-8.764C71.925,31.982,72.269,31.224,72.564,30.395z"/>
	<g>
		<g>
			<path fill="#85B036" d="M112.078,219.566l44.803-40.835c2.215-2.011,2.383-5.452,0.363-7.662
				c-2.027-2.219-5.451-2.371-7.667-0.359l-30.875,28.145l0,0L112.078,219.566z"/>
		</g>
		<g>
			<path fill="#85B036" d="M87.386,227.381l-36.238,33.021c-2.216,2.019-2.371,5.451-0.355,7.655
				c2.02,2.227,5.452,2.386,7.666,0.367l22.698-20.69l6.349-19.858L87.386,227.381z"/>
		</g>
		<path fill="#85B036" d="M94.77,257.242l-4.961-20.099l-4.234,13.226l-9.26,28.99c-0.917,2.85,0.66,5.899,3.513,6.817
			c0.248,0.08,0.491,0.126,0.738,0.168c0.06,0.007,0.121,0.023,0.167,0.031c0.249,0.039,0.492,0.056,0.727,0.056
			c0.02,0,0.052,0,0.072,0c0.236-0.007,0.471-0.025,0.707-0.056c0.052-0.008,0.1-0.008,0.147-0.024
			c0.235-0.04,0.483-0.095,0.71-0.175c0.047-0.009,0.099-0.032,0.148-0.049c0.215-0.07,0.43-0.16,0.639-0.264
			c0.019-0.017,0.04-0.017,0.06-0.032c0.215-0.111,0.431-0.238,0.63-0.375c0.048-0.038,0.088-0.063,0.136-0.096
			c0.199-0.151,0.382-0.303,0.562-0.471c0.028-0.032,0.048-0.064,0.08-0.079c0.156-0.167,0.304-0.335,0.444-0.527
			c0.027-0.032,0.055-0.064,0.075-0.104c0.147-0.2,0.275-0.415,0.396-0.639c0.027-0.048,0.06-0.104,0.079-0.151
			c0.116-0.232,0.216-0.471,0.304-0.734L94.77,257.242z"/>
		<path fill="#85B036" d="M101.921,199.236l4.972,20.083l6.534-20.419l13.769-43.077c0.905-2.857-0.671-5.906-3.524-6.825
			c-0.235-0.079-0.479-0.128-0.727-0.176c-0.06-0.007-0.12-0.016-0.18-0.016c-0.244-0.04-0.479-0.063-0.727-0.063
			c-0.02,0-0.048,0-0.068,0c-0.235,0-0.474,0.031-0.709,0.063c-0.049,0.009-0.096,0.009-0.148,0.016
			c-0.235,0.04-0.471,0.097-0.707,0.168c-0.052,0.024-0.091,0.039-0.14,0.047c-0.228,0.081-0.442,0.169-0.649,0.279
			c-0.021,0-0.041,0.009-0.057,0.017c-0.219,0.121-0.426,0.248-0.63,0.384c-0.052,0.032-0.087,0.063-0.128,0.104
			c-0.207,0.143-0.395,0.295-0.571,0.471c-0.019,0.032-0.052,0.048-0.071,0.08c-0.168,0.151-0.316,0.335-0.452,0.518
			c-0.027,0.032-0.06,0.073-0.08,0.097c-0.147,0.208-0.275,0.424-0.391,0.646c-0.032,0.048-0.052,0.096-0.08,0.145
			c-0.106,0.238-0.215,0.479-0.307,0.742l-14.858,46.486l-0.072,0.24V199.236z"/>
		<path fill="#85B036" d="M103.989,228.427l-5.571-22.533l-1.693-6.84l-9.977-40.35c-0.072-0.271-0.167-0.543-0.275-0.798
			c-0.02-0.048-0.032-0.088-0.052-0.137c-0.117-0.238-0.235-0.47-0.383-0.685c-0.029-0.041-0.06-0.089-0.087-0.129
			c-0.148-0.223-0.304-0.423-0.484-0.623c-0.019-0.022-0.039-0.039-0.059-0.056c-0.167-0.184-0.351-0.351-0.551-0.502
			c-0.028-0.024-0.06-0.056-0.088-0.072c-0.206-0.16-0.422-0.295-0.638-0.423c-0.052-0.017-0.099-0.048-0.147-0.079
			c-0.227-0.121-0.455-0.217-0.698-0.305c-0.04-0.009-0.08-0.023-0.107-0.03c-0.248-0.081-0.483-0.146-0.739-0.185
			c-0.02-0.008-0.052-0.023-0.071-0.023c-0.264-0.041-0.532-0.057-0.795-0.064c-0.06,0-0.12,0-0.178,0
			c-0.136,0-0.276,0.008-0.411,0.023c-0.073,0-0.128,0-0.2,0.017c-0.204,0.024-0.403,0.063-0.611,0.111
			c-2.902,0.719-4.681,3.664-3.962,6.57l14.211,57.453l0.39,1.581l6.872,27.793l0,0l2.292,9.274l8.198,33.156
			c0.071,0.289,0.168,0.551,0.275,0.807c0.019,0.04,0.04,0.097,0.06,0.128c0.108,0.248,0.236,0.479,0.375,0.703
			c0.028,0.039,0.06,0.08,0.088,0.127c0.147,0.215,0.307,0.424,0.482,0.622c0.021,0.017,0.041,0.024,0.06,0.048
			c0.167,0.184,0.352,0.352,0.56,0.513c0.032,0.015,0.052,0.048,0.079,0.071c0.208,0.15,0.424,0.296,0.651,0.422
			c0.048,0.017,0.087,0.049,0.127,0.064c0.235,0.119,0.471,0.231,0.719,0.319c0.028,0.007,0.068,0.016,0.096,0.023
			c0.247,0.08,0.495,0.151,0.75,0.192c0.02,0.007,0.04,0.007,0.06,0.017c0.264,0.038,0.531,0.063,0.806,0.071
			c0.06,0,0.107,0,0.167,0c0.136,0,0.283-0.008,0.423-0.033c0.06,0,0.128-0.007,0.188-0.015c0.208-0.023,0.403-0.065,0.611-0.113
			c2.913-0.717,4.681-3.654,3.963-6.561l-12.429-50.286L103.989,228.427L103.989,228.427z"/>
	</g>
</g>
</svg>
