<?xml version="1.0" encoding="utf-8"?>
<!-- Generator: Adobe Illustrator 16.0.3, SVG Export Plug-In . SVG Version: 6.00 Build 0)  -->
<!DOCTYPE svg PUBLIC "-//W3C//DTD SVG 1.1//EN" "http://www.w3.org/Graphics/SVG/1.1/DTD/svg11.dtd">
<svg version="1.1" id="Layer_1" xmlns="http://www.w3.org/2000/svg" xmlns:xlink="http://www.w3.org/1999/xlink" x="0px" y="0px"
	 width="300px" height="300px" viewBox="0 0 300 300" enable-background="new 0 0 300 300" xml:space="preserve">
<g>
	<g>
		<path fill="#AA91AB" stroke="#9B6E9E" stroke-width="4.8395" stroke-miterlimit="10" d="M262.5,126.571
			c0,48.017-30.134,89.052-72.523,105.184l-39.945,54.205l-39.938-54.205C67.634,215.623,37.5,174.651,37.5,126.571
			C37.5,64.37,87.893,14.04,150.031,14.04S262.5,64.37,262.5,126.571z"/>
	</g>
	<g>
		<path fill="#231F20" d="M219.215,89.752c-0.358-0.498-0.725-0.977-1.064-1.368c-0.769-0.889-1.651-1.651-2.553-2.288
			c0.587-1.764,0.385-3.749-0.517-5.558c2.319,1.777,5.464,2.69,8.306,2.117c0.435-0.076,0.907-0.227,1.387-0.391
			c-0.354-0.504-0.725-0.958-1.065-1.361c-2.104-2.432-4.928-3.957-7.467-4.241c1.878-1.109,2.962-3.333,2.603-6.087
			c-0.063-0.504-0.189-1.096-0.347-1.714c-0.649,0.019-1.254,0.107-1.765,0.214c-2.628,0.51-4.38,2.162-4.865,4.241
			c-1.059-2.313-3.32-4.524-6.226-5.791c-0.517-0.227-1.115-0.441-1.764-0.655c-0.013,0.586,0.019,1.128,0.081,1.638
			c0.341,2.792,2.067,5.445,4.361,7.096c-1.929-0.29-3.838,0.101-5.313,1.153c-0.876-0.681-1.859-1.273-2.924-1.746
			c-0.523-0.227-1.109-0.447-1.771-0.655c-0.007,0.586,0.025,1.134,0.088,1.625c0.347,2.792,2.08,5.445,4.36,7.127
			c-1.928-0.321-3.837,0.095-5.318,1.128c-0.863-0.687-1.846-1.267-2.917-1.733c-0.523-0.22-1.115-0.454-1.759-0.668
			c-0.019,0.58,0.007,1.141,0.069,1.632c0.347,2.792,2.08,5.444,4.374,7.114c-1.935-0.309-3.851,0.095-5.331,1.153
			c-0.857-0.693-1.853-1.292-2.918-1.739c-0.517-0.24-1.103-0.46-1.758-0.668c-0.013,0.599,0.013,1.128,0.075,1.62
			c0.354,2.804,2.073,5.469,4.373,7.108c-1.935-0.303-3.856,0.094-5.318,1.141c-0.876-0.674-1.853-1.26-2.917-1.739
			c-0.529-0.214-1.122-0.435-1.765-0.655c-0.02,0.592,0.013,1.134,0.075,1.625c0.341,2.811,2.073,5.457,4.361,7.114
			c-1.929-0.283-3.838,0.095-5.319,1.147c-0.869-0.674-1.853-1.279-2.917-1.746c-0.523-0.227-1.122-0.435-1.758-0.655
			c-0.02,0.58,0.013,1.128,0.075,1.639c0.347,2.792,2.066,5.451,4.36,7.095c-1.94-0.29-3.837,0.113-5.312,1.153
			c-0.883-0.674-1.853-1.273-2.924-1.739c-0.523-0.24-1.115-0.447-1.765-0.662c-0.013,0.599,0.013,1.141,0.075,1.625
			c0.341,2.798,2.08,5.451,4.367,7.127c-1.94-0.315-3.838,0.082-5.313,1.134c-0.876-0.687-1.853-1.272-2.924-1.745
			c-0.522-0.214-1.115-0.441-1.764-0.668c-0.02,0.599,0.012,1.146,0.082,1.645c0.346,2.804,2.072,5.432,4.354,7.108
			c-2.59-0.403-5.167,0.429-6.667,2.464c-0.214,0.277-0.435,0.63-0.648,1.027c0.535,0.284,1.002,0.51,1.455,0.712
			c1.803,0.788,3.555,1.046,5.092,0.914c1.141-0.094,2.187-0.365,2.993-0.888c-0.239,0.838-0.208,1.815-0.019,2.829
			c0.283,1.607,1.064,3.333,2.444,4.934c0.29,0.328,0.618,0.706,0.989,1.059c0.297-0.302,0.542-0.586,0.763-0.876
			c1.531-2.054,1.569-4.827,0.359-7.234c2.319,1.777,5.47,2.672,8.318,2.092c0.428-0.082,0.895-0.202,1.38-0.378
			c-0.354-0.498-0.725-0.964-1.071-1.374c-0.769-0.882-1.626-1.664-2.54-2.275c0.573-1.752,0.378-3.768-0.529-5.545
			c2.319,1.777,5.47,2.653,8.306,2.092c0.435-0.082,0.914-0.227,1.387-0.391c-0.354-0.485-0.713-0.952-1.059-1.361
			c-0.77-0.895-1.646-1.645-2.553-2.293c0.58-1.746,0.378-3.75-0.51-5.552c2.306,1.802,5.457,2.678,8.292,2.117
			c0.441-0.088,0.914-0.221,1.38-0.384c-0.346-0.504-0.705-0.977-1.059-1.368c-0.762-0.895-1.638-1.669-2.539-2.287
			c0.592-1.758,0.378-3.75-0.523-5.552c2.319,1.783,5.47,2.666,8.306,2.117c0.435-0.094,0.901-0.22,1.374-0.391
			c-0.341-0.498-0.706-0.97-1.053-1.386c-0.763-0.882-1.639-1.645-2.559-2.269c0.593-1.758,0.385-3.768-0.51-5.564
			c2.313,1.79,5.457,2.678,8.305,2.111c0.429-0.082,0.908-0.227,1.38-0.391c-0.353-0.485-0.712-0.958-1.064-1.349
			c-0.757-0.901-1.632-1.676-2.546-2.306c0.586-1.752,0.385-3.743-0.523-5.533c2.319,1.777,5.477,2.666,8.306,2.092
			c0.435-0.076,0.92-0.22,1.387-0.391c-0.354-0.485-0.712-0.958-1.053-1.354c-0.775-0.901-1.651-1.658-2.552-2.288
			c0.579-1.765,0.371-3.762-0.523-5.564c2.313,1.79,5.464,2.691,8.299,2.13C218.27,90.048,218.73,89.916,219.215,89.752z"/>
		<path fill="#231F20" d="M147.36,128.203c0.006,0,0.019,0,0.031-0.006C147.378,128.203,147.366,128.203,147.36,128.203z"/>
		<path fill="#231F20" d="M147.02,128.537c0.013-0.025,0.031-0.044,0.057-0.063C147.051,128.493,147.032,128.512,147.02,128.537z"/>
		<path fill="#231F20" d="M148.109,127.787c0.025-0.012,0.051-0.012,0.076-0.019C148.16,127.775,148.135,127.775,148.109,127.787z"
			/>
		<path fill="#231F20" d="M147.694,127.982c0.019-0.006,0.044-0.025,0.069-0.038C147.738,127.958,147.712,127.977,147.694,127.982z"
			/>
		<path fill="#231F20" d="M146.364,129.709c0.019-0.032,0.019-0.051,0.031-0.082C146.383,129.659,146.383,129.678,146.364,129.709z"
			/>
		<path fill="#231F20" d="M146.528,129.249c0.006-0.012,0.025-0.038,0.032-0.057C146.553,129.211,146.534,129.237,146.528,129.249z"
			/>
		<path fill="#231F20" d="M146.742,128.884c0.006-0.019,0.019-0.031,0.031-0.038C146.761,128.853,146.749,128.865,146.742,128.884z"
			/>
		<path fill="#231F20" d="M148.569,127.655c-0.006,0-0.012,0-0.025,0.006c0.013-0.006,0.025-0.006,0.031-0.006H148.569z"/>
		<path fill="#231F20" d="M148.96,127.617c0.025-0.006,0.057-0.013,0.088-0.013C149.017,127.604,148.985,127.611,148.96,127.617z"/>
		<path fill="#231F20" d="M169.994,62.807c-0.554-0.258-1.103-0.473-1.601-0.643c-1.108-0.403-2.249-0.63-3.358-0.719
			c-0.365-1.827-1.537-3.459-3.207-4.556c2.898,0.391,6.068-0.397,8.242-2.325c0.334-0.284,0.681-0.63,1.002-1.021
			c-0.542-0.246-1.103-0.473-1.601-0.643c-3.031-1.071-6.238-0.971-8.583,0.044c1.084-1.884,0.901-4.361-0.774-6.572
			c-0.303-0.41-0.706-0.851-1.166-1.311c-0.549,0.34-1.027,0.712-1.418,1.053c-2.017,1.764-2.716,4.077-2.104,6.1
			c-2.067-1.456-5.13-2.256-8.274-1.896c-0.567,0.057-1.197,0.17-1.859,0.309c0.277,0.517,0.58,0.97,0.882,1.386
			c1.695,2.25,4.512,3.68,7.329,3.97c-1.821,0.699-3.283,2.003-4.04,3.648c-1.09-0.151-2.243-0.183-3.396-0.051
			c-0.567,0.063-1.197,0.164-1.859,0.322c0.284,0.51,0.58,0.958,0.882,1.361c1.695,2.243,4.512,3.68,7.329,3.989
			c-1.815,0.7-3.277,1.991-4.04,3.63c-1.09-0.151-2.243-0.176-3.396-0.038c-0.561,0.063-1.185,0.17-1.865,0.296
			c0.29,0.529,0.592,0.989,0.889,1.38c1.701,2.25,4.518,3.68,7.334,3.989c-1.827,0.693-3.289,1.998-4.039,3.649
			c-1.09-0.17-2.25-0.183-3.402-0.051c-0.567,0.063-1.191,0.164-1.859,0.296c0.284,0.523,0.586,0.983,0.889,1.393
			c1.695,2.25,4.512,3.674,7.329,3.976c-1.821,0.693-3.283,1.998-4.039,3.63c-1.097-0.145-2.244-0.177-3.396-0.051
			c-0.561,0.076-1.191,0.17-1.865,0.303c0.284,0.517,0.586,0.983,0.888,1.38c1.695,2.275,4.512,3.687,7.329,3.989
			c-1.827,0.712-3.277,2.004-4.033,3.643c-1.097-0.151-2.243-0.183-3.409-0.069c-0.561,0.082-1.185,0.195-1.853,0.321
			c0.284,0.523,0.586,0.983,0.876,1.386c1.708,2.231,4.524,3.68,7.335,3.97c-1.821,0.719-3.277,2.01-4.033,3.649
			c-1.103-0.145-2.25-0.177-3.396-0.05c-0.567,0.063-1.197,0.183-1.872,0.315c0.29,0.517,0.586,0.97,0.889,1.374
			c1.695,2.25,4.518,3.693,7.329,3.982c-1.828,0.7-3.277,2.004-4.033,3.63c-1.103-0.158-2.243-0.17-3.396-0.038
			c-0.567,0.063-1.191,0.164-1.859,0.303c0.271,0.517,0.574,0.97,0.876,1.386c1.695,2.243,4.512,3.68,7.329,3.982
			c-2.445,0.952-4.26,2.956-4.556,5.463c-0.038,0.347-0.051,0.775-0.051,1.21c0.605-0.025,1.134-0.057,1.626-0.113
			c1.954-0.208,3.592-0.863,4.871-1.739c0.939-0.649,1.714-1.399,2.148-2.262c0.208,0.857,0.725,1.67,1.387,2.464
			c1.052,1.235,2.596,2.351,4.587,3.056c0.416,0.145,0.876,0.29,1.387,0.41c0.101-0.403,0.177-0.769,0.221-1.122
			c0.303-2.552-1.053-4.984-3.296-6.465c2.898,0.391,6.075-0.416,8.249-2.338c0.334-0.271,0.674-0.618,1.002-1.015
			c-0.555-0.252-1.104-0.46-1.601-0.643c-1.104-0.391-2.25-0.63-3.353-0.706c-0.365-1.821-1.544-3.453-3.214-4.568
			c2.898,0.397,6.074-0.41,8.242-2.313c0.334-0.284,0.675-0.643,1.009-1.021c-0.555-0.258-1.104-0.492-1.601-0.662
			c-1.109-0.384-2.257-0.605-3.353-0.706c-0.372-1.809-1.544-3.435-3.221-4.55c2.899,0.391,6.075-0.416,8.255-2.313
			c0.334-0.29,0.675-0.649,1.002-1.027c-0.561-0.265-1.108-0.498-1.606-0.649c-1.103-0.397-2.243-0.63-3.346-0.737
			c-0.366-1.802-1.544-3.435-3.214-4.537c2.892,0.391,6.074-0.41,8.242-2.319c0.334-0.29,0.681-0.624,1.008-1.015
			c-0.555-0.258-1.103-0.492-1.601-0.668c-1.108-0.378-2.249-0.611-3.358-0.706c-0.365-1.808-1.538-3.434-3.22-4.549
			c2.904,0.397,6.074-0.403,8.261-2.313c0.321-0.283,0.668-0.655,0.996-1.033c-0.555-0.233-1.097-0.473-1.607-0.649
			c-1.108-0.384-2.243-0.618-3.34-0.7c-0.371-1.814-1.544-3.447-3.22-4.568c2.898,0.391,6.068-0.403,8.249-2.307
			c0.334-0.277,0.674-0.655,1.001-1.033c-0.554-0.252-1.096-0.473-1.606-0.655c-1.097-0.397-2.243-0.611-3.346-0.712
			c-0.359-1.796-1.538-3.441-3.221-4.55c2.899,0.397,6.075-0.41,8.249-2.319C169.32,63.538,169.667,63.191,169.994,62.807z"/>
		<path fill="#231F20" d="M130.068,135.002c0.019,0,0.038,0.019,0.051,0.013C130.106,135.021,130.087,135.002,130.068,135.002z"/>
		<path fill="#231F20" d="M130.459,135.229c0.013,0.006,0.025,0.006,0.038,0.025C130.484,135.236,130.472,135.236,130.459,135.229z"
			/>
		<path fill="#231F20" d="M131.127,135.897c0.019,0.019,0.025,0.038,0.038,0.063C131.152,135.935,131.146,135.916,131.127,135.897z"
			/>
		<path fill="#231F20" d="M130.806,135.519c0.019,0.025,0.044,0.038,0.057,0.063C130.85,135.557,130.825,135.544,130.806,135.519z"
			/>
		<path fill="#231F20" d="M128.266,134.738c-0.019,0-0.025,0.025-0.05,0.025c0.038-0.006,0.063-0.013,0.095-0.019
			C128.298,134.75,128.279,134.738,128.266,134.738z"/>
		<path fill="#231F20" d="M129.161,134.725c0.019,0.006,0.038,0.006,0.063,0C129.199,134.731,129.18,134.731,129.161,134.725z"/>
		<path fill="#231F20" d="M127.907,134.851c0.038-0.012,0.069-0.019,0.101-0.031C127.977,134.833,127.945,134.839,127.907,134.851z"
			/>
		<path fill="#231F20" d="M128.726,134.694c0.013,0,0.025,0.006,0.038,0.006C128.751,134.7,128.739,134.694,128.726,134.694z"/>
		<path fill="#231F20" d="M129.615,134.813c0.025,0.006,0.057,0.025,0.088,0.031C129.671,134.839,129.64,134.82,129.615,134.813z"/>
		<path fill="#231F20" d="M111.271,68.938c-0.605,0.076-1.191,0.17-1.701,0.29c-1.153,0.246-2.243,0.649-3.22,1.146
			c-1.273-1.361-3.138-2.13-5.142-2.193c2.678-1.178,4.965-3.522,5.816-6.289c0.132-0.422,0.24-0.92,0.321-1.412
			c-0.611,0.076-1.191,0.189-1.708,0.296c-3.145,0.687-5.823,2.458-7.297,4.543c-0.063-2.187-1.513-4.197-4.096-5.192
			c-0.473-0.183-1.046-0.353-1.683-0.504c-0.284,0.58-0.504,1.147-0.655,1.638c-0.8,2.552-0.176,4.877,1.412,6.302
			c-2.527-0.164-5.558,0.769-8.041,2.722c-0.454,0.346-0.92,0.781-1.431,1.235c0.51,0.277,1.015,0.517,1.481,0.712
			c2.628,1.027,5.778,0.763,8.331-0.454c-1.185,1.557-1.746,3.422-1.531,5.211c-1.015,0.447-2.004,1.04-2.917,1.739
			c-0.454,0.347-0.933,0.769-1.418,1.248c0.504,0.29,1.002,0.523,1.462,0.706c2.628,1.008,5.778,0.769,8.343-0.441
			c-1.185,1.538-1.746,3.409-1.531,5.205c-1.021,0.435-2.01,1.027-2.924,1.746c-0.454,0.347-0.926,0.763-1.431,1.229
			c0.517,0.29,1.015,0.536,1.475,0.712c2.634,1.033,5.785,0.769,8.337-0.448c-1.191,1.55-1.746,3.422-1.519,5.224
			c-1.027,0.435-2.01,1.021-2.924,1.72c-0.454,0.366-0.933,0.775-1.43,1.248c0.517,0.296,1.008,0.529,1.468,0.712
			c2.634,1.021,5.785,0.775,8.337-0.466c-1.185,1.563-1.746,3.44-1.525,5.224c-1.015,0.448-2.01,1.021-2.93,1.746
			c-0.441,0.347-0.914,0.763-1.424,1.229c0.517,0.296,1.008,0.536,1.481,0.712c2.627,1.034,5.778,0.775,8.331-0.447
			c-1.179,1.563-1.746,3.416-1.531,5.211c-1.015,0.447-2.004,1.021-2.924,1.732c-0.448,0.366-0.92,0.794-1.418,1.248
			c0.517,0.29,1.008,0.523,1.475,0.712c2.627,1.021,5.778,0.763,8.324-0.46c-1.178,1.563-1.739,3.428-1.525,5.224
			c-1.008,0.448-2.004,1.034-2.918,1.733c-0.454,0.353-0.92,0.781-1.424,1.235c0.51,0.309,1.008,0.536,1.475,0.725
			c2.627,1.008,5.778,0.763,8.337-0.454c-1.191,1.563-1.746,3.428-1.531,5.218c-1.021,0.441-2.01,1.027-2.918,1.733
			c-0.46,0.359-0.933,0.769-1.43,1.241c0.517,0.296,1.008,0.529,1.475,0.706c2.627,1.034,5.778,0.775,8.331-0.441
			c-1.601,2.073-2.073,4.751-1.015,7.02c0.151,0.346,0.353,0.706,0.592,1.077c0.504-0.321,0.933-0.636,1.323-0.938
			c1.55-1.21,2.603-2.628,3.233-4.04c0.466-1.046,0.725-2.098,0.649-3.069c0.624,0.624,1.493,1.052,2.47,1.38
			c1.556,0.504,3.44,0.643,5.52,0.195c0.416-0.088,0.888-0.208,1.386-0.372c-0.12-0.397-0.252-0.744-0.403-1.078
			c-1.078-2.325-3.503-3.686-6.194-3.781c2.666-1.178,4.953-3.522,5.804-6.308c0.139-0.41,0.233-0.882,0.328-1.38
			c-0.618,0.063-1.197,0.17-1.714,0.277c-1.147,0.246-2.237,0.643-3.227,1.16c-1.26-1.336-3.119-2.136-5.129-2.193
			c2.672-1.191,4.959-3.542,5.81-6.302c0.132-0.416,0.246-0.895,0.321-1.405c-0.605,0.076-1.191,0.177-1.708,0.29
			c-1.147,0.258-2.237,0.655-3.227,1.141c-1.26-1.342-3.113-2.098-5.129-2.187c2.678-1.172,4.959-3.529,5.816-6.283
			c0.132-0.428,0.233-0.907,0.315-1.412c-0.611,0.076-1.197,0.17-1.714,0.277c-1.147,0.252-2.231,0.668-3.22,1.166
			c-1.267-1.361-3.125-2.13-5.136-2.193c2.678-1.191,4.966-3.535,5.816-6.302c0.139-0.422,0.246-0.895,0.321-1.393
			c-0.611,0.063-1.197,0.164-1.714,0.277c-1.147,0.239-2.231,0.649-3.22,1.16c-1.267-1.342-3.119-2.13-5.123-2.199
			c2.672-1.172,4.953-3.517,5.81-6.295c0.126-0.416,0.233-0.907,0.315-1.393c-0.611,0.076-1.191,0.17-1.708,0.29
			c-1.147,0.239-2.243,0.63-3.227,1.134c-1.267-1.349-3.119-2.117-5.129-2.174c2.672-1.197,4.959-3.554,5.816-6.308
			c0.126-0.422,0.233-0.907,0.315-1.405c-0.605,0.076-1.191,0.17-1.708,0.284c-1.153,0.239-2.237,0.662-3.227,1.159
			c-1.267-1.354-3.125-2.13-5.129-2.193c2.672-1.185,4.959-3.542,5.816-6.295C111.088,69.908,111.195,69.442,111.271,68.938z"/>
		<g>
			<g>
				<path fill="#231F20" d="M149.471,172.244l18.974-25.565c0.938-1.267,0.681-3.038-0.586-3.976
					c-1.267-0.945-3.044-0.674-3.989,0.58l-13.075,17.619l0,0L149.471,172.244z"/>
			</g>
			<g>
				<path fill="#231F20" d="M137.529,178.76l-15.35,20.669c-0.933,1.261-0.674,3.05,0.592,3.995c1.26,0.92,3.05,0.668,3.982-0.593
					l9.616-12.955l1.272-10.877L137.529,178.76z"/>
			</g>
			<path fill="#231F20" d="M144.348,193.404l-4.581-9.855l-0.851,7.247l-1.859,15.867c-0.183,1.563,0.939,2.974,2.502,3.163
				c0.132,0.013,0.265,0.025,0.391,0.013c0.038,0,0.069,0,0.094,0c0.132,0,0.258-0.025,0.385-0.051c0.012,0,0.025,0,0.038,0
				c0.113-0.038,0.233-0.063,0.359-0.101c0.025-0.013,0.044-0.013,0.069-0.025c0.12-0.051,0.239-0.101,0.347-0.164
				c0.025-0.013,0.05-0.025,0.069-0.037c0.107-0.063,0.208-0.126,0.309-0.215c0.006,0,0.013,0,0.025-0.013
				c0.101-0.075,0.202-0.163,0.29-0.252c0.019-0.038,0.032-0.05,0.057-0.063c0.088-0.114,0.164-0.189,0.24-0.303
				c0.012-0.025,0.025-0.038,0.031-0.051c0.069-0.101,0.126-0.214,0.183-0.314c0.006-0.025,0.019-0.051,0.025-0.063
				c0.057-0.126,0.101-0.239,0.145-0.365c0.006-0.025,0.019-0.063,0.019-0.088c0.038-0.127,0.069-0.265,0.082-0.416L144.348,193.404
				z"/>
			<path fill="#231F20" d="M142.186,162.805l4.587,9.843l1.311-11.179l2.753-23.605c0.177-1.563-0.938-2.974-2.501-3.157
				c-0.132-0.019-0.265-0.019-0.397-0.019c-0.032,0-0.063,0.006-0.088,0.013c-0.132,0.006-0.258,0.013-0.384,0.038
				c-0.006,0-0.019,0-0.031,0.006c-0.12,0.025-0.246,0.069-0.366,0.107c-0.019,0.006-0.044,0.013-0.076,0.025
				c-0.113,0.038-0.233,0.095-0.34,0.158c-0.025,0.006-0.05,0.025-0.069,0.031c-0.113,0.069-0.214,0.139-0.302,0.221
				c-0.013,0-0.025,0-0.032,0.006c-0.107,0.076-0.195,0.17-0.284,0.265c-0.025,0.025-0.044,0.038-0.057,0.063
				c-0.094,0.088-0.183,0.189-0.246,0.309c-0.013,0.006-0.025,0.019-0.032,0.038c-0.069,0.101-0.126,0.214-0.183,0.309
				c-0.006,0.019-0.025,0.044-0.031,0.057c-0.057,0.12-0.095,0.252-0.139,0.378c-0.006,0.032-0.013,0.057-0.025,0.082
				c-0.031,0.145-0.057,0.277-0.088,0.403l-2.968,25.471L142.186,162.805L142.186,162.805z"/>
			<path fill="#231F20" d="M146.188,177.626l-5.136-11.053l-1.563-3.365l-9.207-19.774c-0.069-0.132-0.139-0.265-0.227-0.391
				c-0.012-0.025-0.019-0.038-0.038-0.063c-0.082-0.113-0.164-0.214-0.265-0.315c-0.019-0.025-0.038-0.038-0.057-0.057
				c-0.101-0.101-0.202-0.183-0.315-0.271c-0.013-0.019-0.019-0.013-0.032-0.025c-0.107-0.082-0.221-0.145-0.34-0.208
				c-0.013,0-0.031-0.013-0.05-0.019c-0.126-0.063-0.246-0.12-0.372-0.158c-0.025-0.006-0.057-0.025-0.082-0.031
				c-0.132-0.025-0.259-0.057-0.391-0.088c-0.025,0.006-0.051,0.006-0.063,0c-0.132-0.019-0.265-0.025-0.397-0.025
				c-0.012,0-0.031-0.006-0.038,0c-0.139,0.013-0.284,0.032-0.416,0.051c-0.031,0.006-0.063,0.012-0.094,0.019
				c-0.069,0.013-0.145,0.038-0.208,0.057c-0.032,0.006-0.063,0.013-0.101,0.025c-0.107,0.032-0.202,0.076-0.302,0.12
				c-1.424,0.662-2.048,2.357-1.386,3.781l13.113,28.174l0.365,0.781l6.339,13.624l0,0l2.111,4.562l7.568,16.258
				c0.063,0.139,0.145,0.265,0.227,0.391c0.013,0.013,0.031,0.051,0.044,0.076c0.082,0.088,0.171,0.214,0.265,0.302
				c0.013,0.025,0.038,0.038,0.057,0.063c0.095,0.088,0.202,0.177,0.31,0.265c0.019,0.013,0.024,0.013,0.037,0.038
				c0.107,0.063,0.215,0.139,0.341,0.188c0.013,0.025,0.031,0.038,0.05,0.038c0.12,0.063,0.246,0.113,0.372,0.151
				c0.025,0,0.051,0.025,0.076,0.013c0.132,0.05,0.265,0.075,0.403,0.101c0.012,0,0.037,0,0.05,0
				c0.133,0.013,0.271,0.025,0.403,0.025c0.013,0,0.025,0,0.038,0c0.139,0,0.277-0.025,0.416-0.051c0.037,0,0.063-0.013,0.095-0.013
				c0.063-0.013,0.139-0.037,0.214-0.05c0.025-0.013,0.063-0.025,0.095-0.025c0.106-0.038,0.195-0.088,0.302-0.126
				c1.425-0.668,2.042-2.356,1.381-3.781l-11.469-24.664L146.188,177.626L146.188,177.626z"/>
		</g>
	</g>
</g>
</svg>
