<?xml version="1.0" encoding="utf-8"?>
<!-- Generator: Adobe Illustrator 16.0.3, SVG Export Plug-In . SVG Version: 6.00 Build 0)  -->
<!DOCTYPE svg PUBLIC "-//W3C//DTD SVG 1.1//EN" "http://www.w3.org/Graphics/SVG/1.1/DTD/svg11.dtd">
<svg version="1.1" id="Layer_1" xmlns="http://www.w3.org/2000/svg" xmlns:xlink="http://www.w3.org/1999/xlink" x="0px" y="0px"
	 width="300px" height="300px" viewBox="0 0 300 300" enable-background="new 0 0 300 300" xml:space="preserve">
<g>
	<g>
		<path fill="#399F49" stroke="#557C3E" stroke-width="4.8395" stroke-miterlimit="10" d="M262.5,126.513
			c0,48.011-30.134,89.109-72.523,105.241l-39.945,54.205l-39.938-54.205C67.697,215.622,37.5,174.587,37.5,126.513
			c0-62.139,50.393-112.472,112.531-112.472S262.5,64.375,262.5,126.513z"/>
	</g>
	<g>
		<path fill="#231F20" d="M157.605,119.248c1.538,6.566,2.993,13.126,4.349,19.705c0.674,3.29,1.323,6.585,1.909,9.887
			c0.58,3.318,1.141,6.62,1.455,10.057c0.284,3.491,0.164,6.818,0.058,10.17c-0.126,3.328-0.328,6.655-0.567,9.982
			c-0.479,6.642,0.151,4.549-0.542,11.191c-0.303,2.848-8.576,5.016-13.611,4.852c-5.041-0.176-8.879-2.621-8.583-5.47
			c0.019-0.126,0.044-0.265,0.069-0.391l0.006-0.025c1.588-6.49,1.859-4.348,3.239-10.863c0.681-3.252,1.33-6.516,1.903-9.768
			c0.561-3.239,1.103-6.503,1.285-9.604c0.145-3.166,0.051-6.459-0.076-9.729c-0.126-3.277-0.315-6.566-0.535-9.859
			c-0.441-6.576-0.99-13.161-1.613-19.742l0,0c-0.114-1.15,1.443-2.13,3.466-2.193C151.745,117.392,157.348,118.189,157.605,119.248
			z"/>
		<path fill="#231F20" d="M190.039,92.536c-12.187,2.628-22.635,7.285-29.68,10.983c11.286-0.356,27.229,1.197,36.782,11.05
			c16.062,16.538,8.179,50.213,8.179,50.213s-6.862-19.406-22.868-35.884c-9.969-10.212-21.071-17.017-28.123-20.656
			c-0.712,0.775-1.973,1.308-3.403,1.308c-1.613,0-3.043-0.656-3.642-1.61c-3.882,3.047-10.744,9.137-20.121,19.884
			c-15.162,17.37-21.495,36.605-21.495,36.605s-7.883-31.589,7.285-48.965c8.898-10.268,20.537-11.944,28.54-11.582
			c-7.285-3.106-18.684-7.048-31.822-8.834c-21.734-3.11-40.481,0.895-42.157,1.251c1.91-1.85,22.749-21.255,44.545-18.211
			c17.852,2.511,31.047,19.345,35.943,26.513c0,0.057,0.057,0.117,0.057,0.177c0.126,0.057,0.183,0.176,0.183,0.236
			c0,0,0.063-0.06,0.12-0.06c0-0.057,0-0.176-0.057-0.236c0,0,0,0,0.057-0.06c-0.057,0-0.057,0-0.12,0
			c-3.106-7.045-7.291-21.258,1.557-35.105c12.112-19.166,46.568-19.286,47.406-19.286c0,0-17.379,11.103-29.736,30.568
			c-3.945,6.267-7.108,11.402-9.496,15.521c5.854-8.955,15.407-19.762,28.066-22.509c22.509-4.836,46.448,17.792,46.448,17.792
			S212.549,87.699,190.039,92.536z"/>
		<path fill="#231F20" d="M148.305,104.716c0.057,0.06,0.057,0.18,0.057,0.236c-0.057,0-0.12,0.06-0.12,0.06
			c0-0.06-0.057-0.18-0.183-0.236c0-0.06-0.057-0.12-0.057-0.177c0.12,0.057,0.183,0.057,0.239,0.057c0.063,0,0.063,0,0.12,0
			C148.305,104.716,148.305,104.716,148.305,104.716z"/>
		<path fill="#231F20" d="M148.361,104.953c-0.057,0-0.12,0.06-0.12,0.06c0-0.06-0.057-0.18-0.183-0.236
			c0.063-0.06,0.126-0.06,0.246-0.06C148.361,104.776,148.361,104.896,148.361,104.953z"/>
		<path fill="#231F20" d="M148.361,104.656c-0.057,0.06-0.057,0.06-0.057,0.06s0-0.06-0.063-0.06
			C148.305,104.656,148.305,104.656,148.361,104.656z"/>
	</g>
</g>
</svg>
