<?xml version="1.0" encoding="utf-8"?>
<!-- Generator: Adobe Illustrator 16.0.3, SVG Export Plug-In . SVG Version: 6.00 Build 0)  -->
<!DOCTYPE svg PUBLIC "-//W3C//DTD SVG 1.1//EN" "http://www.w3.org/Graphics/SVG/1.1/DTD/svg11.dtd">
<svg version="1.1" id="Layer_1" xmlns="http://www.w3.org/2000/svg" xmlns:xlink="http://www.w3.org/1999/xlink" x="0px" y="0px"
	 width="300px" height="300px" viewBox="0 0 300 300" enable-background="new 0 0 300 300" xml:space="preserve">
<g>
	<g>
		<path fill="#FFD13A" d="M153.033,58.702c-58.758,0-108.979,33.964-116.808,79.014c-0.708,4.053-1.069,8.191-1.069,12.287
			c0,4.095,0.361,8.233,1.069,12.296c7.83,45.04,58.05,78.999,116.808,78.999c56.475,0,105.158-22.317,115.777-65.22l0.174-0.722
			l0.646-0.367c6.668-3.758,26.394-20.289,26.394-24.986c0-4.703-19.726-21.229-26.394-24.987l-0.646-0.367l-0.174-0.718
			C258.191,81.029,209.508,58.702,153.033,58.702z"/>
	</g>
	<path fill="#85B036" d="M30.804,131.183c0,0-8.272,5.199-16.878,11.732c-0.742,0.568-9.381,2.891-9.718,3.768
		c-0.327,0.872-0.289,6.134,0,6.64c0.299,0.516,8.89,3.122,9.641,3.69c8.64,6.528,16.955,11.81,16.955,11.81
		c-1.064-6.157-1.633-12.44-1.633-18.825C29.171,143.613,29.74,137.33,30.804,131.183z"/>
</g>
</svg>
