<?xml version="1.0" encoding="utf-8"?>
<!-- Generator: Adobe Illustrator 16.0.3, SVG Export Plug-In . SVG Version: 6.00 Build 0)  -->
<!DOCTYPE svg PUBLIC "-//W3C//DTD SVG 1.1//EN" "http://www.w3.org/Graphics/SVG/1.1/DTD/svg11.dtd">
<svg version="1.1" id="Layer_1" xmlns="http://www.w3.org/2000/svg" xmlns:xlink="http://www.w3.org/1999/xlink" x="0px" y="0px"
	 width="300px" height="300px" viewBox="0 0 300 300" enable-background="new 0 0 300 300" xml:space="preserve">
<g>
	<path fill="#85B036" d="M125.512,217.27c0.613-5.371,1.769-10.707,3.357-15.85c1.589-5.145,3.529-10.09,5.382-14.986
		c-2.014-3.053-4.34-5.973-6.883-8.438c-1.496-1.432-3.111-2.715-4.766-3.633c-0.814-0.449-1.644-0.814-2.448-1.035
		c-0.389-0.109-0.814-0.205-1.163-0.25c-0.078,0-0.125,0.016-0.234-0.029l-0.404-0.109c0.147,0.021,0.037,0,0.07,0.021l-0.011-0.016
		l-0.018-0.006h-0.029l-0.066-0.016l-0.128-0.043l-0.271-0.066c-1.471-0.293-3.368-0.045-5.258,0.543
		c-1.912,0.594-3.831,1.498-5.698,2.539c-3.005,1.703-5.918,3.801-8.652,6.076c-0.007,0.543-0.007,1.094-0.007,1.645
		c0,68.348,15.355,97.496,35.095,106.051c-4.046-18.492-7.654-37.145-8.436-56.299C124.752,228.027,124.896,222.633,125.512,217.27z
		"/>
	<path fill="#85B036" d="M200.308,182.566c-2.591-24.201-4.227-20.348-7.611-57.766c-1.934-21.479,1.281-45.754,6.521-76.795
		c0,0-9.921,15.792-21.256,37.103l-11.109,29.103c-7.478,19.711-15.156,39.363-22.506,59.08l-2.697,7.428
		c-0.929,2.494-1.893,4.975-2.87,7.418c-1.941,4.924-3.926,9.76-5.507,14.662c-1.6,4.902-2.755,9.9-3.409,15
		c-0.671,5.092-0.862,10.273-0.814,15.475c0.136,10.398,1.295,20.85,2.785,31.24c1.232,8.762,2.737,17.51,4.37,26.227
		c3.739,1.246,7.595,1.805,11.514,1.805C173.838,292.545,209.233,266.342,200.308,182.566z"/>
	<g>
		<path fill="#FFBB0C" d="M146.792,59.351c8.255,0,10.167-3.39,10.167-7.573c0-4.183-1.912-7.572-10.167-7.572
			c-8.266,0-10.167,3.39-10.167,7.572C136.625,55.961,138.527,59.351,146.792,59.351z"/>
		<path fill="#FFBB0C" d="M146.792,41.27c8.255,0,10.167-3.384,10.167-7.573c0-4.183-1.912-7.573-10.167-7.573
			c-8.266,0-10.167,3.391-10.167,7.573C136.625,37.886,138.527,41.27,146.792,41.27z"/>
		<path fill="#FFBB0C" d="M146.792,21.391c6.597,0,9.397-2.048,10.369-4.939c-3.65-5.761-7.19-8.996-10.369-8.996
			c-3.199,0-6.729,3.229-10.383,8.96C137.378,19.336,140.17,21.391,146.792,21.391z"/>
		<path fill="#FFBB0C" d="M146.792,77.784c8.255,0,10.167-3.39,10.167-7.572c0-4.184-1.912-7.573-10.167-7.573
			c-8.266,0-10.167,3.39-10.167,7.573C136.625,74.395,138.527,77.784,146.792,77.784z"/>
		<path fill="#FFBB0C" d="M134.545,57.187c0-3.721-1.702-6.744-9.044-6.744c-0.977,0-1.835,0.059-2.617,0.153
			c-1.248,3.824-2.465,7.86-3.647,12.079c1.383,0.785,3.383,1.247,6.264,1.247C132.843,63.922,134.545,60.906,134.545,57.187z"/>
		<path fill="#FFBB0C" d="M134.545,41.137c0-3.097-1.188-5.693-5.827-6.486c-1.663,3.977-3.31,8.396-4.924,13.18
			c0.532,0.044,1.097,0.059,1.707,0.059C132.843,47.889,134.545,44.865,134.545,41.137z"/>
		<path fill="#FFBB0C" d="M135.008,21.391c0-0.771-0.066-1.534-0.242-2.231c-1.449,2.547-2.899,5.452-4.351,8.703
			C134.035,26.769,135.008,24.267,135.008,21.391z"/>
		<path fill="#FFBB0C" d="M125.501,79.972c7.342,0,9.044-3.017,9.044-6.737c0-3.728-1.702-6.751-9.044-6.751
			c-4.542,0-6.927,1.16-8.08,2.921c-0.334,1.247-0.653,2.517-0.976,3.801c0,0.015,0,0.015,0,0.029
			C116.446,76.955,118.144,79.972,125.501,79.972z"/>
		<path fill="#FFBB0C" d="M168.407,64.341c2.693,0,4.618-0.404,5.996-1.101c-1.216-4.314-2.455-8.446-3.732-12.351
			c-0.689-0.066-1.427-0.11-2.264-0.11c-7.393,0-9.106,3.023-9.106,6.774C159.301,61.303,161.015,64.341,168.407,64.341z"/>
		<path fill="#FFBB0C" d="M168.407,48.211c0.484,0,0.943-0.007,1.361-0.029c-1.618-4.806-3.263-9.231-4.928-13.223
			c-4.396,0.858-5.54,3.427-5.54,6.486C159.301,45.181,161.015,48.211,168.407,48.211z"/>
		<path fill="#FFBB0C" d="M163.304,31.363c-1.288-2.862-2.572-5.453-3.853-7.735c-0.096,0.543-0.15,1.108-0.15,1.688
			C159.301,27.965,160.167,30.255,163.304,31.363z"/>
		<path fill="#FFBB0C" d="M176.017,69.177c-1.305-1.394-3.629-2.282-7.609-2.282c-7.393,0-9.106,3.038-9.106,6.795
			c0,3.742,1.714,6.781,9.106,6.781c3.009,0,5.07-0.507,6.469-1.365l2.213-5.694C176.739,71.987,176.374,70.563,176.017,69.177z"/>
		<path fill="#FFBB0C" d="M146.792,95.242c8.255,0,10.167-3.397,10.167-7.58c0-4.176-1.912-7.573-10.167-7.573
			c-8.266,0-10.167,3.397-10.167,7.573C136.625,91.845,138.527,95.242,146.792,95.242z"/>
		<path fill="#FFBB0C" d="M146.792,112.699c8.255,0,10.167-3.39,10.167-7.572c0-4.184-1.912-7.573-10.167-7.573
			c-8.266,0-10.167,3.39-10.167,7.573C136.625,109.31,138.527,112.699,146.792,112.699z"/>
		<path fill="#FFBB0C" d="M146.792,115.004c-8.266,0-10.167,3.391-10.167,7.588c0,4.175,1.901,7.573,10.167,7.573
			c3.508,0,5.864-0.616,7.419-1.629c0.892-2.378,1.787-4.748,2.686-7.111C156.53,117.793,154.263,115.004,146.792,115.004z"/>
		<path fill="#FFBB0C" d="M125.501,96.013c7.342,0,9.044-3.008,9.044-6.737c0-3.727-1.702-6.743-9.044-6.743
			c-7.357,0-9.056,3.017-9.056,6.743C116.446,93.005,118.144,96.013,125.501,96.013z"/>
		<path fill="#FFBB0C" d="M125.501,112.054c7.342,0,9.044-3.008,9.044-6.735c0-3.722-1.702-6.744-9.044-6.744
			c-7.357,0-9.056,3.022-9.056,6.744C116.446,109.046,118.144,112.054,125.501,112.054z"/>
		<path fill="#FFBB0C" d="M125.501,128.096c7.342,0,9.044-3.009,9.044-6.736s-1.702-6.752-9.044-6.752
			c-7.357,0-9.056,3.024-9.056,6.752S118.144,128.096,125.501,128.096z"/>
		<path fill="#FFBB0C" d="M114.284,96.351c0-1.82-0.462-3.449-1.988-4.542c-0.704,3.294-1.38,6.655-2.025,10.045
			C113.434,100.943,114.284,98.83,114.284,96.351z"/>
		<path fill="#FFBB0C" d="M114.284,111.247c0-2.649-0.979-4.888-4.711-5.672c-0.697,3.815-1.358,7.683-1.978,11.594
			C112.985,116.824,114.284,114.299,114.284,111.247z"/>
		<path fill="#FFBB0C" d="M114.284,126.136c0-3.141-1.387-5.708-7.144-5.951c-0.598,3.94-1.151,7.911-1.647,11.889
			c0.252,0.015,0.506,0.036,0.782,0.036C112.777,132.109,114.284,129.432,114.284,126.136z"/>
		<path fill="#FFBB0C" d="M173.119,83.604c-1.229-0.374-2.771-0.579-4.712-0.579c-7.393,0-9.106,3.038-9.106,6.787
			c0,3.691,1.688,6.7,8.842,6.773l4.811-12.563L173.119,83.604z"/>
		<path fill="#FFBB0C" d="M159.301,105.935c0,2.377,0.697,4.461,3.089,5.672l4.752-12.431
			C160.827,99.521,159.301,102.404,159.301,105.935z"/>
		<path fill="#FFBB0C" d="M152.429,133.255c-1.424-0.499-3.262-0.786-5.636-0.786c-8.266,0-10.167,3.391-10.167,7.573
			c0,4.184,1.901,7.573,10.167,7.573c0.092,0,0.169-0.008,0.257-0.008c1.12-3.001,2.242-6.009,3.372-9.011
			C151.089,136.813,151.757,135.037,152.429,133.255z"/>
		<path fill="#FFBB0C" d="M125.501,144.151c7.342,0,9.044-3.022,9.044-6.751c0-3.728-1.702-6.736-9.044-6.736
			c-7.357,0-9.056,3.009-9.056,6.736C116.446,141.129,118.144,144.151,125.501,144.151z"/>
		<path fill="#FFBB0C" d="M114.284,141.019c0-3.296-1.507-5.967-8.009-5.967c-0.408,0-0.79,0.015-1.152,0.03
			c-0.458,3.903-0.874,7.822-1.244,11.755c0.719,0.104,1.504,0.154,2.396,0.154C112.777,146.991,114.284,144.313,114.284,141.019z"
			/>
		<path fill="#FFBB0C" d="M137.272,158.959c0,3.098,0.987,5.799,4.542,7.148c1.867-5.07,3.728-10.141,5.617-15.189
			C139.22,151.094,137.272,154.631,137.272,158.959z"/>
		<path fill="#FFBB0C" d="M125.501,160.186c7.342,0,9.044-3.031,9.044-6.744c0-3.728-1.702-6.751-9.044-6.751
			c-7.357,0-9.056,3.023-9.056,6.751C116.446,157.154,118.144,160.186,125.501,160.186z"/>
		<path fill="#FFBB0C" d="M114.284,155.908c0-3.303-1.507-5.96-8.009-5.96c-1.013,0-1.89,0.074-2.679,0.184
			c-0.323,3.81-0.587,7.61-0.803,11.396c0.961,0.236,2.099,0.354,3.482,0.354C112.777,161.881,114.284,159.209,114.284,155.908z"/>
		<path fill="#FFBB0C" d="M138.571,174.518c-1.993,1.475-2.602,3.654-2.602,6.09c0,0.375,0.019,0.748,0.055,1.094
			c0.323-0.889,0.646-1.775,0.969-2.672C137.51,177.555,138.035,176.043,138.571,174.518z"/>
		<path fill="#FFBB0C" d="M125.963,169.322c2.062,1.57,3.739,3.359,5.217,5.23c0.84,1.072,1.611,2.158,2.344,3.268
			c1.112-1.234,1.483-2.855,1.483-4.631c0-3.92-1.787-7.082-9.506-7.082c-1.879,0-3.398,0.184-4.635,0.521
			c0.58,0.184,1.115,0.381,1.647,0.623C123.788,167.824,124.929,168.551,125.963,169.322z"/>
		<path fill="#FFBB0C" d="M104.837,172.727c1.699-1.41,3.511-2.744,5.588-3.859c0.954-0.5,1.981-0.969,3.082-1.336
			c-0.995-1.629-3.108-2.701-7.231-2.701c-1.464,0-2.675,0.141-3.674,0.396c-0.153,3.287-0.257,6.561-0.326,9.834
			C103.105,174.252,103.953,173.475,104.837,172.727z"/>
	</g>
</g>
</svg>
