<?xml version="1.0" encoding="utf-8"?>
<!-- Generator: Adobe Illustrator 16.0.3, SVG Export Plug-In . SVG Version: 6.00 Build 0)  -->
<!DOCTYPE svg PUBLIC "-//W3C//DTD SVG 1.1//EN" "http://www.w3.org/Graphics/SVG/1.1/DTD/svg11.dtd">
<svg version="1.1" id="Layer_1" xmlns="http://www.w3.org/2000/svg" xmlns:xlink="http://www.w3.org/1999/xlink" x="0px" y="0px"
	 width="300px" height="300px" viewBox="0 0 300 300" enable-background="new 0 0 300 300" xml:space="preserve">
<g>
	<path fill="#E85A22" d="M186.234,188.189c0,56.184-16.098,101.746-35.962,101.746c-19.858,0-35.957-45.563-35.957-101.746
		c0-56.183,16.099-101.732,35.957-101.732C170.137,86.457,186.234,132.007,186.234,188.189z"/>
	<path fill="#E85A22" d="M73.887,286.021c2.118,0,4.196-0.529,6.217-1.471c-16.896-7.889-29.744-47.33-29.744-94.822
		c0-47.502,12.849-86.933,29.744-94.833c-2.021-0.941-4.099-1.458-6.217-1.458c-19.864,0-58.549,43.104-58.549,96.291
		C15.338,242.904,54.022,286.021,73.887,286.021z"/>
	<path fill="#E85A22" d="M226.113,91.842c-2.118,0-4.196,0.517-6.217,1.458c16.896,7.9,29.743,47.33,29.743,94.833
		c0,47.49-12.848,86.922-29.743,94.82c2.021,0.943,4.099,1.461,6.217,1.461c19.865,0,58.549-43.107,58.549-96.293
		C284.662,134.947,245.979,91.842,226.113,91.842z"/>
	<path fill="#E85A22" d="M101.777,293.414c6.969,0,13.469-5.947,18.935-16.166c-9.807-18.314-16.312-50.42-16.312-86.979
		c0-36.572,6.505-68.665,16.312-86.98c-5.466-10.219-11.966-16.167-18.935-16.167c-19.463,0-43.41,46.182-43.41,103.146
		C58.367,247.232,82.314,293.414,101.777,293.414z"/>
	<path fill="#E85A22" d="M198.354,87.123c-6.97,0-13.463,5.947-18.935,16.167c9.807,18.315,16.317,50.408,16.317,86.98
		c0,36.559-6.511,68.664-16.317,86.988c5.472,10.209,11.965,16.156,18.935,16.156c19.468,0,43.409-46.182,43.409-103.145
		C241.764,133.305,217.822,87.123,198.354,87.123z"/>
	<path fill="#85B036" d="M132.285,80.773c-0.292-0.77-0.425-1.229-0.603-1.792l-0.448-1.584c-0.281-1.045-0.528-2.067-0.757-3.101
		c-0.454-2.067-0.822-4.145-1.086-6.258c-0.533-4.237-0.711-8.623-0.218-13.251c0.511-4.593,1.74-9.507,4.323-14.1
		c2.538-4.604,6.551-8.577,10.885-11c1.086-0.62,2.176-1.16,3.278-1.631c0.546-0.229,1.091-0.448,1.642-0.654l0.822-0.287
		l0.206-0.069l0.103-0.035h0.023c0.028-0.022-0.166,0.069-0.068,0.023l0.034-0.012l0.31-0.091c0.953-0.31,1.32-0.391,2.067-0.655
		c0.671-0.229,1.32-0.482,1.958-0.734c2.561-1.057,4.885-2.377,6.866-4.031c1.975-1.642,3.611-3.617,4.776-5.925
		c0.585-1.16,1.051-2.389,1.384-3.663c0.172-0.643,0.299-1.286,0.39-1.929c0.047-0.321,0.08-0.643,0.109-0.941l0.029-0.437
		l0.017-0.195c0.006-0.023,0-0.161,0.029-0.035l10.541-1.802l0.194,1.057l0.127,0.861c0.068,0.562,0.114,1.102,0.148,1.653
		c0.063,1.091,0.075,2.17,0.018,3.25c-0.108,2.158-0.448,4.306-1.017,6.418c-1.131,4.214-3.237,8.244-5.965,11.666
		c-2.722,3.433-6.022,6.281-9.501,8.611c-0.861,0.574-1.751,1.137-2.641,1.654c-0.815,0.494-2.021,1.113-2.67,1.47l-0.287,0.148
		l-0.035,0.023l-0.114,0.046l-0.006,0.011l-0.046,0.023l-0.098,0.069l-0.367,0.218c-0.247,0.149-0.472,0.311-0.694,0.471
		c-0.443,0.321-0.845,0.654-1.206,0.999c-1.447,1.378-2.176,2.779-2.612,4.432c-0.437,1.643-0.545,3.675-0.293,5.982
		c0.241,2.297,0.839,4.834,1.711,7.372c0.431,1.275,0.93,2.55,1.487,3.802c0.275,0.62,0.568,1.239,0.86,1.826l0.448,0.861
		c0.138,0.241,0.322,0.574,0.379,0.597L132.285,80.773z"/>
</g>
</svg>
