<?xml version="1.0" encoding="utf-8"?>
<!-- Generator: Adobe Illustrator 16.0.3, SVG Export Plug-In . SVG Version: 6.00 Build 0)  -->
<!DOCTYPE svg PUBLIC "-//W3C//DTD SVG 1.1//EN" "http://www.w3.org/Graphics/SVG/1.1/DTD/svg11.dtd">
<svg version="1.1" id="Layer_1" xmlns="http://www.w3.org/2000/svg" xmlns:xlink="http://www.w3.org/1999/xlink" x="0px" y="0px"
	 width="300px" height="300px" viewBox="0 0 300 300" enable-background="new 0 0 300 300" xml:space="preserve">
<g>
	<polygon fill="#603913" points="33.956,66.062 21.671,68.088 13.437,18.284 25.717,16.259 	"/>
	<polygon fill="#603913" points="268.322,66.062 280.603,68.088 288.837,18.284 276.557,16.259 	"/>
	<g>
		<polygon fill="#603913" points="287.31,77.44 285.453,90.567 278.774,90.567 235.208,90.586 173.106,90.586 128.2,90.586 
			64.653,90.586 19.839,90.604 12.963,90.604 11.163,77.44 		"/>
		<polygon fill="#603913" points="169.815,177.23 172.932,95.115 128.375,95.115 131.492,177.23 		"/>
		<polygon fill="#603913" points="169.175,193.948 132.132,193.968 135.077,271.535 166.234,271.535 		"/>
		<polygon fill="#603913" points="123.649,193.968 85.444,193.968 94.513,271.535 126.637,271.535 		"/>
		<polygon fill="#603913" points="123.004,177.23 119.842,95.115 73.891,95.115 83.493,177.23 		"/>
		<polygon fill="#603913" points="65.188,95.115 16.392,95.133 33.118,177.23 74.84,177.23 		"/>
		<polygon fill="#603913" points="76.81,193.968 36.525,193.968 52.317,271.535 85.924,271.535 		"/>
		<polygon fill="#603913" points="227.089,95.097 181.156,95.097 178.051,177.23 217.548,177.23 		"/>
		<polygon fill="#603913" points="215.6,193.948 177.41,193.948 174.478,271.535 206.592,271.535 		"/>
		<polygon fill="#603913" points="222.987,193.948 213.814,271.535 247.434,271.535 263.301,193.948 		"/>
		<polygon fill="#603913" points="234.67,95.097 224.962,177.23 266.716,177.23 283.507,95.097 		"/>
		<polygon fill="#603913" points="260.548,189.42 262.113,181.76 36.322,181.76 37.841,189.438 		"/>
		<polygon fill="#603913" points="51.484,276.063 53.004,283.741 245.387,283.725 246.95,276.063 		"/>
	</g>
</g>
</svg>
