<?xml version="1.0" encoding="utf-8"?>
<!-- Generator: Adobe Illustrator 16.0.3, SVG Export Plug-In . SVG Version: 6.00 Build 0)  -->
<!DOCTYPE svg PUBLIC "-//W3C//DTD SVG 1.1//EN" "http://www.w3.org/Graphics/SVG/1.1/DTD/svg11.dtd">
<svg version="1.1" id="Layer_1" xmlns="http://www.w3.org/2000/svg" xmlns:xlink="http://www.w3.org/1999/xlink" x="0px" y="0px"
	 width="300px" height="300px" viewBox="0 0 300 300" enable-background="new 0 0 300 300" xml:space="preserve">
<g>
	<g>
		<path fill="#B1E27F" stroke="#89AF62" stroke-width="4.8395" stroke-miterlimit="10" d="M262.5,126.51
			c0,48.015-30.134,89.112-72.523,105.244l-39.945,54.205l-39.938-54.205C67.634,215.622,37.5,174.587,37.5,126.51
			c0-62.139,50.393-112.468,112.531-112.468S262.5,64.371,262.5,126.51z"/>
	</g>
	<g>
		<path fill="#231F20" d="M198.181,113.459c-2.526-3.604-6.156-5.243-10.454-5.117c3.069-12.426,2.798-23.259-1.544-29.472
			c-3.78-5.388-10-6.384-17.272-3.699c-3.894-17.82-10.73-29.648-18.52-29.648c-7.707,0-14.475,11.57-18.388,29.082
			c-6.535-1.947-12.086-0.7-15.564,4.266c-4.379,6.257-4.619,17.203-1.475,29.755c-5.476-0.996-10.107,0.498-13.145,4.833
			c-8.563,12.231-1.342,42.384,16.151,67.34c4.543,6.517,9.339,11.998,14.096,16.372c0.592,2.583,1.512,4.839,2.811,6.691
			c3.396,4.853,26.85,4.853,30.253,0c1.292-1.853,2.218-4.108,2.804-6.691c4.758-4.374,9.554-9.855,14.104-16.372
			C199.523,155.844,206.744,125.691,198.181,113.459z"/>
		<path fill="#B1E27F" d="M151.33,123.819c0.17,1.582,0.289,3.176,0.428,4.745l0.359,4.764c0.246,3.164,0.429,6.346,0.617,9.502
			c0.354,6.352,0.618,12.698,0.839,19.028c0.214,6.339,0.353,12.678,0.46,19.03l0.113,9.502l0.019,4.752l0.007,2.382l0.006,1.185
			v0.593v0.302c0.133,0.089-0.29,0.202-2.848,0.29c-0.864,0.038-1.803,0.038-2.66,0c-2.559-0.088-2.974-0.201-2.848-0.29v-0.302
			v-0.593l0.006-1.185l0.006-2.382l0.019-4.752l0.12-9.502c0.101-6.353,0.24-12.691,0.46-19.03
			c0.214-6.33,0.479-12.676,0.838-19.028c0.189-3.157,0.372-6.339,0.605-9.502l0.365-4.764c0.145-1.569,0.258-3.164,0.429-4.745
			c0.076-0.737,0.737-1.273,1.468-1.191C150.781,122.698,151.267,123.208,151.33,123.819z"/>
	</g>
</g>
</svg>
