<?xml version="1.0" encoding="utf-8"?>
<!-- Generator: Adobe Illustrator 16.0.3, SVG Export Plug-In . SVG Version: 6.00 Build 0)  -->
<!DOCTYPE svg PUBLIC "-//W3C//DTD SVG 1.1//EN" "http://www.w3.org/Graphics/SVG/1.1/DTD/svg11.dtd">
<svg version="1.1" id="Layer_1" xmlns="http://www.w3.org/2000/svg" xmlns:xlink="http://www.w3.org/1999/xlink" x="0px" y="0px"
	 width="300px" height="300px" viewBox="0 0 300 300" enable-background="new 0 0 300 300" xml:space="preserve">
<g>
	<path fill="#FFDD00" stroke="#FFBB0C" stroke-width="5.3317" stroke-miterlimit="10" d="M262.5,126.542
		c0,48.055-30.144,89.069-72.582,105.211l-39.883,54.171l-39.883-54.171C67.713,215.611,37.5,174.597,37.5,126.542
		c0-62.134,50.401-112.465,112.535-112.465C212.168,14.077,262.5,64.408,262.5,126.542z"/>
	<g>
		<g>
			<path fill="#231F20" d="M154.436,73.572c-32.878,0-60.98,19.001-65.368,44.215c-0.396,2.27-0.597,4.589-0.597,6.873
				c0,2.284,0.202,4.603,0.597,6.88c4.388,25.208,32.49,44.208,65.368,44.208c31.602,0,58.851-12.496,64.786-36.503l0.104-0.402
				l0.354-0.201c3.742-2.104,14.773-11.351,14.773-13.982s-11.031-11.878-14.773-13.982l-0.354-0.215l-0.104-0.389
				C213.286,86.062,186.037,73.572,154.436,73.572z"/>
		</g>
		<path fill="#231F20" d="M83.409,109.026c0,0-6.873,4.312-14.016,9.747c-0.611,0.465-7.796,2.395-8.074,3.131
			c-0.264,0.722-0.236,5.096,0,5.512c0.25,0.431,7.387,2.597,8.012,3.069c7.178,5.415,14.079,9.802,14.079,9.802
			c-0.875-5.109-1.36-10.33-1.36-15.634C82.049,119.35,82.535,114.136,83.409,109.026z"/>
	</g>
</g>
</svg>
