<?xml version="1.0" encoding="utf-8"?>
<!-- Generator: Adobe Illustrator 16.0.3, SVG Export Plug-In . SVG Version: 6.00 Build 0)  -->
<!DOCTYPE svg PUBLIC "-//W3C//DTD SVG 1.1//EN" "http://www.w3.org/Graphics/SVG/1.1/DTD/svg11.dtd">
<svg version="1.1" id="Layer_1" xmlns="http://www.w3.org/2000/svg" xmlns:xlink="http://www.w3.org/1999/xlink" x="0px" y="0px"
	 width="300px" height="300px" viewBox="0 0 300 300" enable-background="new 0 0 300 300" xml:space="preserve">
<g>
	<path fill="#85B036" d="M153.405,227.091c-58.854,2.606-108.094-29.803-109.97-72.382c-1.896-42.56,44.297-79.195,103.156-81.802
		c58.852-2.587,108.098,29.802,109.974,72.381C258.441,187.868,212.258,224.483,153.405,227.091z"/>
	<path fill="#AA2C39" d="M228.512,178.764c-12.2,0.533-22.767-14.496-23.611-33.554c-0.845-19.059,8.364-34.957,20.561-35.49
		c12.199-0.533,22.77,14.477,23.614,33.535C249.915,162.313,240.706,178.211,228.512,178.764z"/>
	<path fill="#FFFFFF" d="M201.351,96.231c-11.76-1.442-22.974-2.863-34.141-3.653c-5.574-0.395-11.109-0.612-16.625-0.612
		c-5.515,0-10.956,0.276-16.396,1.086c-10.868,1.521-21.641,4.602-32.162,8.69c-10.512,4.127-20.806,9.144-30.824,15.088
		c1.921-2.211,4.014-4.285,6.196-6.221c2.163-1.995,4.414-3.871,6.764-5.648c4.651-3.614,9.588-6.873,14.763-9.776
		c10.334-5.806,21.655-10.151,33.579-12.403c5.959-1.086,12.062-1.698,18.09-1.698c6.039,0.039,12.042,0.691,17.913,1.796
		c5.865,1.126,11.604,2.785,17.137,4.958C191.155,90.089,196.526,92.676,201.351,96.231z"/>
</g>
</svg>
