<?xml version="1.0" encoding="utf-8"?>
<!-- Generator: Adobe Illustrator 16.0.3, SVG Export Plug-In . SVG Version: 6.00 Build 0)  -->
<!DOCTYPE svg PUBLIC "-//W3C//DTD SVG 1.1//EN" "http://www.w3.org/Graphics/SVG/1.1/DTD/svg11.dtd">
<svg version="1.1" id="Layer_1" xmlns="http://www.w3.org/2000/svg" xmlns:xlink="http://www.w3.org/1999/xlink" x="0px" y="0px"
	 width="300px" height="300px" viewBox="0 0 300 300" enable-background="new 0 0 300 300" xml:space="preserve">
<g>
	<g>
		<path fill="#FF7B19" stroke="#B75C1A" stroke-width="4.8395" stroke-miterlimit="10" d="M262.5,126.515
			c0,48.004-30.134,89.115-72.523,105.247l-39.945,54.198l-39.938-54.198C67.697,215.63,37.5,174.588,37.5,126.515
			C37.5,64.376,87.893,14.04,150.031,14.04S262.5,64.376,262.5,126.515z"/>
	</g>
	<g>
		<path fill="#231F20" d="M168.4,134.757c0,28.533-8.173,51.672-18.262,51.672c-10.083,0-18.255-23.139-18.255-51.672
			s8.173-51.66,18.255-51.66C160.228,83.097,168.4,106.224,168.4,134.757z"/>
		<path fill="#231F20" d="M111.353,184.438c1.071,0,2.13-0.271,3.151-0.743c-8.576-4.008-15.104-24.034-15.104-48.156
			s6.528-44.148,15.104-48.156c-1.021-0.479-2.08-0.744-3.151-0.744c-10.095,0-29.736,21.892-29.736,48.899
			S101.258,184.438,111.353,184.438z"/>
		<path fill="#231F20" d="M188.653,85.832c-1.078,0-2.13,0.265-3.157,0.737c8.576,4.014,15.104,24.04,15.104,48.162
			c0,24.116-6.528,44.136-15.104,48.149c1.027,0.479,2.079,0.737,3.157,0.737c10.089,0,29.73-21.885,29.73-48.893
			C218.384,107.724,198.742,85.832,188.653,85.832z"/>
		<path fill="#231F20" d="M125.513,188.193c3.541,0,6.837-3.025,9.616-8.211c-4.984-9.301-8.28-25.603-8.28-44.167
			c0-18.577,3.295-34.872,8.28-44.173c-2.779-5.186-6.075-8.205-9.616-8.205c-9.881,0-22.043,23.448-22.043,52.378
			C103.47,164.739,115.632,188.193,125.513,188.193z"/>
		<path fill="#231F20" d="M174.557,83.438c-3.541,0-6.837,3.019-9.616,8.205c4.979,9.301,8.287,25.597,8.287,44.173
			c0,18.564-3.309,34.866-8.287,44.173c2.779,5.18,6.075,8.205,9.616,8.205c9.887,0,22.043-23.454,22.043-52.378
			C196.6,106.885,184.443,83.438,174.557,83.438z"/>
		<path fill="#231F20" d="M141.008,80.211c-0.151-0.391-0.221-0.63-0.309-0.908l-0.227-0.807c-0.145-0.529-0.271-1.052-0.384-1.575
			c-0.233-1.046-0.416-2.104-0.555-3.176c-0.271-2.155-0.359-4.386-0.107-6.73c0.258-2.332,0.882-4.827,2.193-7.159
			c1.285-2.344,3.327-4.36,5.526-5.589c0.555-0.309,1.109-0.586,1.664-0.825c0.277-0.12,0.554-0.227,0.838-0.334l0.416-0.145
			l0.107-0.038l0.051-0.013h0.013c0.012-0.012-0.088,0.032-0.038,0.013l0.019-0.013l0.157-0.044
			c0.485-0.157,0.668-0.195,1.052-0.334c0.341-0.113,0.668-0.239,0.989-0.372c1.305-0.536,2.483-1.204,3.491-2.048
			c1.002-0.832,1.834-1.84,2.426-3.006c0.297-0.586,0.536-1.216,0.7-1.859c0.088-0.328,0.151-0.655,0.201-0.983
			c0.02-0.164,0.038-0.328,0.051-0.479l0.019-0.221l0.007-0.095c0-0.013,0-0.088,0.019-0.025l5.35-0.914l0.095,0.536l0.069,0.441
			c0.031,0.29,0.057,0.561,0.076,0.838c0.031,0.555,0.037,1.103,0.006,1.651c-0.057,1.09-0.227,2.187-0.517,3.258
			c-0.573,2.143-1.645,4.185-3.024,5.923c-1.387,1.746-3.063,3.189-4.827,4.374c-0.441,0.29-0.889,0.58-1.343,0.844
			c-0.409,0.252-1.026,0.567-1.354,0.744l-0.145,0.076l-0.02,0.013l-0.057,0.025h-0.006l-0.02,0.013l-0.05,0.038l-0.189,0.114
			c-0.126,0.076-0.239,0.151-0.353,0.239c-0.221,0.158-0.429,0.328-0.611,0.504c-0.737,0.699-1.103,1.411-1.33,2.256
			c-0.22,0.832-0.277,1.865-0.145,3.037c0.12,1.16,0.422,2.451,0.869,3.737c0.215,0.649,0.473,1.298,0.757,1.935
			c0.139,0.315,0.283,0.63,0.435,0.92l0.227,0.441c0.069,0.126,0.164,0.29,0.195,0.302L141.008,80.211z"/>
	</g>
</g>
</svg>
