<?xml version="1.0" encoding="utf-8"?>
<!-- Generator: Adobe Illustrator 16.0.3, SVG Export Plug-In . SVG Version: 6.00 Build 0)  -->
<!DOCTYPE svg PUBLIC "-//W3C//DTD SVG 1.1//EN" "http://www.w3.org/Graphics/SVG/1.1/DTD/svg11.dtd">
<svg version="1.1" id="Layer_1" xmlns="http://www.w3.org/2000/svg" xmlns:xlink="http://www.w3.org/1999/xlink" x="0px" y="0px"
	 width="300px" height="300px" viewBox="0 0 300 300" enable-background="new 0 0 300 300" xml:space="preserve">
<g>
	<path fill="#AA2C39" d="M93.655,104.487c0,0,16.785,18.731,16.781,21.029c0.004,2.307-30.046,7.723-30.046,7.723
		s-2.525,32.038-6.418,32.103c-3.898-0.064-23.167-16.193-23.167-16.193s0,0-3.141,2.562c6.592,14.096,24.028,35.275,51.663,62.91
		c55.323,55.323,163.984,78.199,176.713,65.463c12.745-12.746-43.468-18.709-77.365-63.822
		c-22.493-29.941-31.005-45.896-55.958-76.813c-15.626-19.375-33.232-35.544-45.258-41.662
		C94.59,102.709,93.655,104.487,93.655,104.487z"/>
	<path fill="#85B036" d="M80.791,105.764c0,0,14.073-21.672,11.547-24.198c-2.539-2.535-28.774,14.506-28.774,14.506l-3.504,0.861
		c-1.542-2.693-3.068-5.392-4.556-8.101c-4.431-8.142-8.839-16.474-11.948-24.726c-0.378-1.021-0.715-2.042-0.998-3.017
		l-0.374-1.386l-0.296-1.559c-0.346-2.07-0.561-4.294-0.688-6.537c-0.265-4.495-0.242-9.126-0.096-13.759
		c0.296-9.281,1.048-18.671,2.092-27.926l0.009-0.063c0.178-1.605-0.912-3.091-2.53-3.392c-1.687-0.301-3.306,0.802-3.611,2.499
		c-1.732,9.408-3.131,18.781-4.103,28.336c-0.474,4.777-0.833,9.591-0.897,14.514c-0.014,2.471,0.037,4.97,0.292,7.577l0.237,1.934
		c0.128,0.802,0.232,1.413,0.383,2.087c0.269,1.304,0.588,2.563,0.935,3.784c1.399,4.869,3.131,9.4,4.932,13.886
		c1.819,4.485,3.743,8.871,5.726,13.22c0.945,2.063,1.902,4.113,2.868,6.156l-5.872,16.217c0,0-11.547,27.845-8.388,31
		c3.168,3.173,17.4-10.439,17.4-10.439s12.172,18.348,15.827,18.348c3.638,0,4.796-31.012,4.796-31.012s28.118-2.599,28.113-4.741
		C99.308,117.68,80.791,105.764,80.791,105.764z"/>
</g>
</svg>
