<?xml version="1.0" encoding="utf-8"?>
<!-- Generator: Adobe Illustrator 16.0.3, SVG Export Plug-In . SVG Version: 6.00 Build 0)  -->
<!DOCTYPE svg PUBLIC "-//W3C//DTD SVG 1.1//EN" "http://www.w3.org/Graphics/SVG/1.1/DTD/svg11.dtd">
<svg version="1.1" id="Layer_1" xmlns="http://www.w3.org/2000/svg" xmlns:xlink="http://www.w3.org/1999/xlink" x="0px" y="0px"
	 width="300px" height="300px" viewBox="0 0 300 300" enable-background="new 0 0 300 300" xml:space="preserve">
<g>
	<g>
		<path fill="#B4744C" stroke="#815336" stroke-width="4.8395" stroke-miterlimit="10" d="M262.5,126.51
			c0,48.015-30.134,89.112-72.523,105.244l-39.945,54.205l-39.938-54.205C67.634,215.622,37.5,174.587,37.5,126.51
			c0-62.139,50.393-112.468,112.531-112.468S262.5,64.371,262.5,126.51z"/>
	</g>
	<g>
		<polygon fill="#231F20" points="92.612,87.561 86.538,88.556 82.467,63.93 88.542,62.935 		"/>
		<polygon fill="#231F20" points="208.516,87.561 214.59,88.556 218.661,63.93 212.586,62.935 		"/>
		<g>
			<polygon fill="#231F20" points="217.904,93.194 216.991,99.685 213.683,99.685 192.138,99.691 161.431,99.691 139.225,99.691 
				107.793,99.691 85.637,99.704 82.228,99.704 81.339,93.194 			"/>
			<polygon fill="#231F20" points="159.799,142.535 161.336,101.928 139.3,101.928 140.85,142.535 			"/>
			<polygon fill="#231F20" points="159.483,150.809 141.166,150.814 142.621,189.169 158.028,189.169 			"/>
			<polygon fill="#231F20" points="136.975,150.814 118.07,150.814 122.563,189.169 138.443,189.169 			"/>
			<polygon fill="#231F20" points="136.653,142.535 135.084,101.928 112.361,101.928 117.113,142.535 			"/>
			<polygon fill="#231F20" points="108.058,101.928 83.929,101.94 92.197,142.535 112.834,142.535 			"/>
			<polygon fill="#231F20" points="113.804,150.814 93.885,150.814 101.693,189.169 118.316,189.169 			"/>
			<polygon fill="#231F20" points="188.124,101.922 165.407,101.922 163.869,142.535 183.404,142.535 			"/>
			<polygon fill="#231F20" points="182.439,150.809 163.555,150.809 162.105,189.169 177.991,189.169 			"/>
			<polygon fill="#231F20" points="186.095,150.809 181.558,189.169 198.181,189.169 206.032,150.809 			"/>
			<polygon fill="#231F20" points="191.873,101.922 187.071,142.535 207.722,142.535 216.021,101.922 			"/>
			<polygon fill="#231F20" points="204.672,148.571 205.446,144.771 93.785,144.771 94.535,148.578 			"/>
			<polygon fill="#231F20" points="101.283,191.412 102.033,195.205 197.173,195.205 197.941,191.412 			"/>
		</g>
	</g>
</g>
</svg>
