<?xml version="1.0" encoding="utf-8"?>
<!-- Generator: Adobe Illustrator 16.0.3, SVG Export Plug-In . SVG Version: 6.00 Build 0)  -->
<!DOCTYPE svg PUBLIC "-//W3C//DTD SVG 1.1//EN" "http://www.w3.org/Graphics/SVG/1.1/DTD/svg11.dtd">
<svg version="1.1" id="Layer_1" xmlns="http://www.w3.org/2000/svg" xmlns:xlink="http://www.w3.org/1999/xlink" x="0px" y="0px"
	 width="300px" height="300px" viewBox="0 0 300 300" enable-background="new 0 0 300 300" xml:space="preserve">
<g>
	<g>
		<path fill="#FFBB0C" stroke="#BF8C09" stroke-width="4.8395" stroke-miterlimit="10" d="M262.5,126.515
			c0,48.004-30.134,89.108-72.523,105.178l-40.008,54.268l-39.875-54.268C67.634,215.623,37.5,174.588,37.5,126.515
			C37.5,64.37,87.893,14.04,149.968,14.04C212.17,14.04,262.5,64.37,262.5,126.515z"/>
	</g>
	<g>
		<path fill="#231F20" d="M133.711,166.957c0.334-2.949,0.97-5.86,1.833-8.671c0.87-2.811,1.928-5.507,2.943-8.179
			c-1.103-1.67-2.376-3.264-3.762-4.612c-0.819-0.782-1.695-1.487-2.603-1.985c-0.447-0.246-0.901-0.447-1.336-0.573
			c-0.214-0.057-0.447-0.113-0.636-0.139c-0.044,0-0.069,0.013-0.126-0.013l-0.221-0.05c0.076,0,0.019,0,0.032,0l0,0h-0.013h-0.019
			l-0.031-0.013l-0.069-0.025l-0.151-0.032c-0.8-0.17-1.84-0.025-2.874,0.296c-1.046,0.321-2.092,0.813-3.113,1.386
			c-1.639,0.933-3.233,2.067-4.726,3.314c-0.006,0.303-0.006,0.605-0.006,0.895c0,37.342,8.394,53.259,19.175,57.935
			c-2.212-10.095-4.178-20.277-4.606-30.751C133.295,172.83,133.377,169.881,133.711,166.957z"/>
		<path fill="#231F20" d="M179.882,147.99c-1.412-13.227-2.313-11.116-4.153-31.558c-1.059-11.74,0.693-24.992,3.561-41.955
			c0,0-5.419,8.633-11.613,20.278l-6.068,15.893c-4.09,10.763-8.28,21.5-12.301,32.276l-1.468,4.058
			c-0.51,1.361-1.033,2.722-1.569,4.046c-1.059,2.697-2.143,5.344-3.006,8.016c-0.876,2.684-1.506,5.406-1.865,8.191
			c-0.365,2.785-0.473,5.621-0.441,8.457c0.076,5.684,0.706,11.393,1.519,17.064c0.674,4.776,1.494,9.565,2.388,14.329
			c2.042,0.681,4.146,0.983,6.289,0.983C165.426,208.068,184.759,193.751,179.882,147.99z"/>
		<g>
			<path fill="#231F20" d="M148.803,70.394c4.386,0,5.4-1.802,5.4-4.026c0-2.212-1.015-4.014-5.4-4.014s-5.4,1.802-5.4,4.014
				C143.402,68.591,144.417,70.394,148.803,70.394z"/>
			<path fill="#231F20" d="M148.803,59.102c4.386,0,5.4-1.796,5.4-4.033c0-2.206-1.015-4.008-5.4-4.008s-5.4,1.802-5.4,4.008
				C143.402,57.306,144.417,59.102,148.803,59.102z"/>
			<path fill="#231F20" d="M148.803,46.738c3.504,0,4.99-1.083,5.508-2.621c-1.941-3.056-3.819-4.777-5.508-4.777
				c-1.695,0-3.573,1.714-5.507,4.751C143.806,45.654,145.287,46.738,148.803,46.738z"/>
			<path fill="#231F20" d="M148.803,81.906c4.386,0,5.4-1.796,5.4-4.02c0-2.225-1.015-4.021-5.4-4.021s-5.4,1.796-5.4,4.021
				C143.402,80.11,144.417,81.906,148.803,81.906z"/>
			<path fill="#231F20" d="M140.435,69.751c0-1.979-0.901-3.592-4.795-3.592c-0.517,0-0.977,0.038-1.387,0.094
				c-0.668,2.023-1.311,4.172-1.941,6.409c0.737,0.416,1.796,0.655,3.328,0.655C139.533,73.317,140.435,71.729,140.435,69.751z"/>
			<path fill="#231F20" d="M140.648,59.744c0-1.657-0.624-3.031-3.087-3.453c-0.882,2.111-1.758,4.461-2.622,7.007
				c0.29,0.019,0.586,0.025,0.914,0.025C139.748,63.323,140.648,61.716,140.648,59.744z"/>
			<path fill="#231F20" d="M141.229,47.589c0-0.403-0.032-0.813-0.126-1.191c-0.775,1.361-1.544,2.899-2.313,4.632
				C140.711,50.449,141.229,49.12,141.229,47.589z"/>
			<path fill="#231F20" d="M135.507,83.35c3.894,0,4.802-1.607,4.802-3.573c0-1.985-0.908-3.585-4.802-3.585
				c-2.414,0-3.68,0.618-4.292,1.55c-0.176,0.662-0.347,1.323-0.517,2.017c0,0.012,0,0.012,0,0.019
				C130.699,81.743,131.6,83.35,135.507,83.35z"/>
			<path fill="#231F20" d="M162.162,73.582c1.424,0,2.444-0.214,3.176-0.58c-0.643-2.294-1.305-4.487-1.979-6.566
				c-0.372-0.032-0.757-0.051-1.197-0.051c-3.933,0-4.84,1.601-4.84,3.592S158.229,73.582,162.162,73.582z"/>
			<path fill="#231F20" d="M161.947,63.525c0.246,0,0.498,0,0.712-0.013c-0.856-2.558-1.727-4.902-2.608-7.032
				c-2.338,0.46-2.942,1.828-2.942,3.453C157.108,61.912,158.016,63.525,161.947,63.525z"/>
			<path fill="#231F20" d="M158.929,53.26c-0.68-1.519-1.367-2.892-2.048-4.108c-0.05,0.284-0.082,0.586-0.082,0.889
				C156.799,51.451,157.266,52.674,158.929,53.26z"/>
			<path fill="#231F20" d="M166.32,77.659c-0.692-0.737-1.922-1.216-4.032-1.216c-3.933,0-4.84,1.626-4.84,3.617
				c0,1.979,0.907,3.598,4.84,3.598c1.588,0,2.69-0.271,3.428-0.725l1.172-3.025C166.705,79.153,166.51,78.396,166.32,77.659z"/>
			<path fill="#231F20" d="M148.803,92.808c4.386,0,5.4-1.796,5.4-4.021s-1.015-4.027-5.4-4.027s-5.4,1.802-5.4,4.027
				S144.417,92.808,148.803,92.808z"/>
			<path fill="#231F20" d="M148.803,103.716c4.386,0,5.4-1.809,5.4-4.021c0-2.224-1.015-4.026-5.4-4.026s-5.4,1.802-5.4,4.026
				C143.402,101.907,144.417,103.716,148.803,103.716z"/>
			<path fill="#231F20" d="M148.803,106.564c-4.392,0-5.4,1.802-5.4,4.039c0,2.212,1.008,4.014,5.4,4.014
				c1.865,0,3.113-0.328,3.938-0.87c0.473-1.254,0.945-2.521,1.424-3.768C153.97,108.051,152.767,106.564,148.803,106.564z"/>
			<path fill="#231F20" d="M135.507,93.369c3.894,0,4.802-1.601,4.802-3.566c0-1.998-0.908-3.592-4.802-3.592
				c-3.907,0-4.808,1.594-4.808,3.592C130.699,91.768,131.6,93.369,135.507,93.369z"/>
			<path fill="#231F20" d="M135.507,103.388c3.894,0,4.802-1.601,4.802-3.58c0-1.979-0.908-3.579-4.802-3.579
				c-3.907,0-4.808,1.601-4.808,3.579C130.699,101.788,131.6,103.388,135.507,103.388z"/>
			<path fill="#231F20" d="M135.507,113.407c3.894,0,4.802-1.594,4.802-3.579c0-1.979-0.908-3.579-4.802-3.579
				c-3.907,0-4.808,1.601-4.808,3.579C130.699,111.813,131.6,113.407,135.507,113.407z"/>
			<path fill="#231F20" d="M128.311,94.251c0-0.964-0.246-1.821-1.053-2.407c-0.378,1.746-0.737,3.542-1.077,5.331
				C127.863,96.696,128.311,95.574,128.311,94.251z"/>
			<path fill="#231F20" d="M128.19,103.527c0-1.412-0.523-2.603-2.501-3.012c-0.378,2.029-0.725,4.083-1.052,6.15
				C127.498,106.488,128.19,105.14,128.19,103.527z"/>
			<path fill="#231F20" d="M128.09,112.809c0-1.657-0.737-3.018-3.793-3.157c-0.315,2.092-0.611,4.197-0.87,6.314
				c0.126,0.013,0.265,0.013,0.41,0.013C127.29,115.979,128.09,114.554,128.09,112.809z"/>
			<path fill="#231F20" d="M164.601,86.828c-0.655-0.202-1.469-0.302-2.502-0.302c-3.926,0-4.839,1.613-4.839,3.604
				c0,1.947,0.9,3.554,4.7,3.592l2.546-6.667L164.601,86.828z"/>
			<path fill="#231F20" d="M156.982,100.149c0,1.254,0.371,2.37,1.645,3.006l2.514-6.604
				C157.789,96.74,156.982,98.271,156.982,100.149z"/>
			<path fill="#231F20" d="M151.582,117.894c-0.756-0.265-1.727-0.416-2.994-0.416c-4.386,0-5.394,1.802-5.394,4.021
				s1.008,4.02,5.394,4.02c0.05,0,0.095-0.012,0.139-0.012c0.599-1.582,1.191-3.182,1.79-4.777
				C150.87,119.785,151.229,118.839,151.582,117.894z"/>
			<path fill="#231F20" d="M135.507,123.427c3.894,0,4.802-1.601,4.802-3.579c0-1.979-0.908-3.58-4.802-3.58
				c-3.907,0-4.808,1.601-4.808,3.58C130.699,121.826,131.6,123.427,135.507,123.427z"/>
			<path fill="#231F20" d="M128.014,122.104c0-1.752-0.8-3.164-4.253-3.164c-0.214,0-0.416,0.013-0.611,0.013
				c-0.246,2.08-0.46,4.159-0.662,6.245c0.384,0.057,0.8,0.082,1.273,0.082C127.214,125.279,128.014,123.855,128.014,122.104z"/>
			<path fill="#231F20" d="M143.333,133.27c0,1.645,0.523,3.082,2.414,3.793c0.989-2.69,1.972-5.381,2.98-8.066
				C144.373,129.098,143.333,130.976,143.333,133.27z"/>
			<path fill="#231F20" d="M135.507,133.446c3.894,0,4.802-1.613,4.802-3.58c0-1.979-0.908-3.592-4.802-3.592
				c-3.907,0-4.808,1.613-4.808,3.592C130.699,131.833,131.6,133.446,135.507,133.446z"/>
			<path fill="#231F20" d="M127.964,131.404c0-1.752-0.8-3.163-4.253-3.163c-0.542,0-1.008,0.038-1.424,0.101
				c-0.17,2.017-0.309,4.033-0.422,6.049c0.511,0.126,1.109,0.189,1.847,0.189C127.164,134.58,127.964,133.156,127.964,131.404z"/>
			<path fill="#231F20" d="M143.667,143.024c-1.241,0.926-1.62,2.293-1.62,3.806c0,0.24,0.006,0.479,0.032,0.687
				c0.202-0.561,0.403-1.109,0.605-1.67C143.012,144.921,143.333,143.982,143.667,143.024z"/>
			<path fill="#231F20" d="M135.979,140.037c1.09,0.826,1.985,1.777,2.772,2.773c0.441,0.567,0.857,1.147,1.241,1.727
				c0.592-0.643,0.788-1.506,0.788-2.451c0-2.08-0.951-3.762-5.047-3.762c-0.996,0-1.802,0.101-2.458,0.277
				c0.309,0.101,0.592,0.202,0.876,0.34C134.826,139.237,135.425,139.622,135.979,140.037z"/>
			<path fill="#231F20" d="M122.885,141.65c0.901-0.75,1.865-1.456,2.968-2.054c0.504-0.258,1.053-0.504,1.639-0.706
				c-0.529-0.857-1.651-1.437-3.844-1.437c-0.775,0-1.418,0.082-1.947,0.214c-0.082,1.752-0.139,3.485-0.17,5.218
				C121.971,142.457,122.418,142.047,122.885,141.65z"/>
		</g>
	</g>
</g>
</svg>
