<?xml version="1.0" encoding="utf-8"?>
<!-- Generator: Adobe Illustrator 16.0.3, SVG Export Plug-In . SVG Version: 6.00 Build 0)  -->
<!DOCTYPE svg PUBLIC "-//W3C//DTD SVG 1.1//EN" "http://www.w3.org/Graphics/SVG/1.1/DTD/svg11.dtd">
<svg version="1.1" id="Layer_1" xmlns="http://www.w3.org/2000/svg" xmlns:xlink="http://www.w3.org/1999/xlink" x="0px" y="0px"
	 width="300px" height="300px" viewBox="0 0 300 300" enable-background="new 0 0 300 300" xml:space="preserve">
<g>
	<path fill="#85B036" d="M236.208,126.643c-4.52-6.451-11.015-9.374-18.703-9.158c5.492-22.231,5.007-41.612-2.771-52.729
		c-6.761-9.647-17.893-11.433-30.897-6.61c-6.966-31.894-19.201-53.06-33.136-53.06c-13.779,0-25.9,20.706-32.905,52.024
		c-11.688-3.47-21.617-1.239-27.84,7.646c-7.84,11.202-8.269,30.785-2.643,53.233c-9.802-1.771-18.078,0.893-23.521,8.653
		c-15.324,21.887-2.394,75.84,28.889,120.506c8.138,11.635,16.721,21.453,25.227,29.287c1.062,4.607,2.718,8.654,5.033,11.965
		c6.08,8.684,48.045,8.684,54.129,0c2.311-3.311,3.971-7.357,5.025-11.965c8.51-7.834,17.087-17.652,25.228-29.287
		C238.603,202.482,251.533,148.529,236.208,126.643z"/>
	<path fill="#FFFFFF" d="M152.381,145.175c0.3,2.836,0.516,5.688,0.771,8.51l0.641,8.509c0.433,5.658,0.768,11.346,1.099,17.006
		c0.634,11.361,1.108,22.707,1.501,34.039c0.389,11.346,0.633,22.693,0.824,34.039l0.198,17.006l0.032,8.51l0.015,4.262l0.011,2.131
		l0.007,1.053v0.531c0.23,0.174-0.519,0.359-5.098,0.533c-1.547,0.059-3.229,0.059-4.755,0c-4.582-0.174-5.327-0.359-5.097-0.533
		v-0.531l0.004-1.053l0.01-2.131l0.011-4.262l0.032-8.51l0.202-17.006c0.19-11.346,0.435-22.693,0.828-34.039
		c0.388-11.332,0.864-22.678,1.501-34.039c0.332-5.66,0.666-11.348,1.09-17.006l0.641-8.509c0.26-2.822,0.476-5.673,0.777-8.51
		c0.134-1.311,1.311-2.261,2.628-2.132C151.395,143.173,152.267,144.08,152.381,145.175z"/>
</g>
</svg>
