<?xml version="1.0" encoding="utf-8"?>
<!-- Generator: Adobe Illustrator 16.0.3, SVG Export Plug-In . SVG Version: 6.00 Build 0)  -->
<!DOCTYPE svg PUBLIC "-//W3C//DTD SVG 1.1//EN" "http://www.w3.org/Graphics/SVG/1.1/DTD/svg11.dtd">
<svg version="1.1" id="Layer_1" xmlns="http://www.w3.org/2000/svg" xmlns:xlink="http://www.w3.org/1999/xlink" x="0px" y="0px"
	 width="300px" height="300px" viewBox="0 0 300 300" enable-background="new 0 0 300 300" xml:space="preserve">
<g>
	<g>
		<path fill="#F7941E" stroke="#C48845" stroke-width="4.8395" stroke-miterlimit="10" d="M262.5,126.578
			c0,48.004-30.134,89.045-72.523,105.177l-39.945,54.205l-39.938-54.205C67.634,215.623,37.5,174.651,37.5,126.578
			C37.5,64.37,87.893,14.04,150.031,14.04S262.5,64.37,262.5,126.578z"/>
	</g>
	<g>
		<g>
			<path fill="#231F20" d="M143.541,92.89c-0.813,0-1.632-0.309-2.256-0.926l-38.666-38.659c-1.248-1.248-1.248-3.271,0-4.524
				c1.248-1.242,3.264-1.242,4.512,0l38.666,38.653c1.248,1.267,1.248,3.283,0,4.531C145.173,92.581,144.354,92.89,143.541,92.89z"
				/>
			<path fill="#231F20" d="M157.373,90.338c0.484,0.479,0.529,1.204,0.101,1.638l-11.664,11.67c-0.422,0.429-1.16,0.378-1.645-0.107
				l-2.786-2.779c-0.485-0.479-0.529-1.222-0.101-1.651l11.67-11.677c0.422-0.422,1.159-0.365,1.645,0.114L157.373,90.338z"/>
			<path fill="#231F20" d="M165.823,93.501c0.485,0.485,0.391,1.368-0.215,1.96l-16.32,16.314c-0.593,0.605-1.468,0.693-1.954,0.208
				l-2.779-2.779c-0.479-0.491-0.397-1.354,0.208-1.947l16.314-16.321c0.599-0.599,1.475-0.706,1.953-0.221L165.823,93.501z"/>
			<path fill="#231F20" d="M172.931,98c0.485,0.491,0.315,1.437-0.365,2.111l-18.608,18.621c-0.687,0.687-1.632,0.845-2.11,0.359
				l-2.786-2.785c-0.479-0.485-0.321-1.424,0.366-2.105l18.608-18.627c0.687-0.668,1.632-0.838,2.104-0.353L172.931,98z"/>
			<path fill="#231F20" d="M177.437,105.134c0.485,0.466,0.391,1.336-0.208,1.94l-16.314,16.321
				c-0.604,0.599-1.475,0.693-1.966,0.208l-2.772-2.785c-0.485-0.479-0.397-1.349,0.208-1.959l16.314-16.321
				c0.599-0.592,1.474-0.68,1.953-0.201L177.437,105.134z"/>
			<path fill="#231F20" d="M179.006,111.964c0.479,0.485-0.347,4.354-4.601,8.614c-4.26,4.247-8.129,5.073-8.607,4.6l-1.179-1.185
				c-0.485-0.485-0.529-1.216-0.101-1.657l11.664-11.664c0.422-0.41,1.159-0.372,1.639,0.107L179.006,111.964z"/>
		</g>
		<g>
			<g>
				<path fill="#231F20" d="M182.963,209.354h-54.652c-0.649,0-1.279-0.215-1.79-0.593c-10.183-7.656-10.183-10.365-10.183-11.393
					v-47.242c0-2.829,3.58-6.862,10.65-11.985v-4.367c0-2.76,0-5.608,29.837-5.608c31.59,0,31.59,2.987,31.59,5.608v5.161
					c9.905,7.776,9.905,10.271,9.905,11.349v47.38c0,1.569,0,3.334-13.876,11.299C183.99,209.209,183.486,209.354,182.963,209.354z
					 M129.313,203.411h52.856c4.108-2.4,8.709-5.337,10.208-6.673v-46.014c-0.851-1.342-4.782-4.934-8.746-7.984
					c-0.73-0.561-1.166-1.431-1.166-2.357v-4.814c-3.194-0.681-12.13-1.468-25.641-1.468c-13.34,0-21.065,0.75-23.889,1.393v4.178
					c0,0.983-0.473,1.884-1.273,2.445c-4.386,3.082-8.67,6.862-9.376,8.287v46.543C123.011,198.099,126.073,200.903,129.313,203.411
					z"/>
				<path fill="#231F20" d="M188.861,195.415c0,1.544-5.274,4.682-7.373,4.682s-50.248,0-51.527,0c-1.286,0-4.172-3.113-4.172-4.682
					c0-1.551,0-19.856,0-19.856h63.072C188.861,175.559,188.861,193.896,188.861,195.415z"/>
			</g>
		</g>
		<path fill="#231F20" d="M179.818,157.102c0,7.001-3.888,12.673-8.684,12.673c-4.795,0-8.684-5.672-8.684-12.673
			c0-2.867,1.765-5.174,4.008-7.001c3.995-3.271,1.752-10.334,1.985-12.389c0.031-0.277-0.013-0.63,0.599-0.63
			c1.79,0,2.489,4.43,4.714,7.499C176.977,148.998,179.818,153.145,179.818,157.102z"/>
	</g>
</g>
</svg>
